<svg width="224" height="240" viewBox="0 0 224 240" fill="none" xmlns="http://www.w3.org/2000/svg">
<path fill-rule="evenodd" clip-rule="evenodd" d="M192.65 92.2976C192.744 79.3056 203.381 68.8471 216.407 68.9401C216.409 68.9401 216.409 68.9401 216.409 68.9401C216.409 68.9401 216.409 68.9401 216.409 68.9421C216.315 81.9346 205.679 92.3906 192.652 92.2976C192.65 92.2976 192.65 92.2976 192.65 92.2976Z" fill="#FF9B00"/>
<path d="M192.825 96.298L192.624 96.2975C191.563 96.2895 190.548 95.861 189.803 95.1055C189.058 94.3495 188.643 93.3295 188.65 92.2685C188.759 77.199 201.133 64.9395 216.234 64.9395L216.436 64.94C218.634 64.9555 220.409 66.742 220.409 68.94C220.301 84.039 207.927 96.298 192.825 96.298ZM211.842 73.4375C204.677 75.0895 198.982 80.689 197.218 87.8C204.384 86.148 210.079 80.549 211.842 73.4375Z" fill="#FF9B00"/>
<path fill-rule="evenodd" clip-rule="evenodd" d="M187.941 122.456C193.978 110.941 208.232 106.489 219.775 112.509V112.511C213.737 124.025 199.485 128.477 187.941 122.456Z" fill="#FF9B00"/>
<path d="M198.853 129.139C194.439 129.139 190.027 128.054 186.092 126.003C185.15 125.511 184.442 124.665 184.125 123.652C183.807 122.638 183.906 121.539 184.399 120.599C189.176 111.487 198.551 105.826 208.866 105.826C213.279 105.826 217.691 106.911 221.626 108.963C222.948 109.652 223.776 111.019 223.776 112.509C223.776 113.156 223.619 113.796 223.319 114.369C218.54 123.479 209.166 129.139 198.853 129.139ZM194.057 120.544C195.614 120.94 197.217 121.139 198.853 121.139C204.629 121.139 209.988 118.644 213.661 114.42C212.104 114.025 210.502 113.826 208.866 113.826C203.09 113.826 197.73 116.321 194.057 120.544Z" fill="#FF9B00"/>
<path fill-rule="evenodd" clip-rule="evenodd" d="M182.941 151.682C193.587 144.193 208.306 146.729 215.813 157.346C215.813 157.348 215.813 157.348 215.813 157.348C205.168 164.838 190.45 162.302 182.941 151.684V151.682Z" fill="#FF9B00"/>
<path d="M202.237 165.651C193.272 165.651 184.838 161.293 179.676 153.993C179.198 153.318 178.941 152.511 178.941 151.684C178.941 150.382 179.575 149.159 180.639 148.41C185.318 145.118 190.809 143.379 196.518 143.379C205.484 143.379 213.918 147.737 219.079 155.037C219.557 155.712 219.813 156.519 219.813 157.346C219.813 158.648 219.179 159.87 218.115 160.619C213.436 163.911 207.945 165.651 202.237 165.651ZM189.265 152.769C192.808 155.879 197.414 157.651 202.237 157.651C204.747 157.651 207.197 157.177 209.49 156.26C205.947 153.151 201.341 151.378 196.518 151.378C194.008 151.378 191.557 151.852 189.265 152.769Z" fill="#FF9B00"/>
<path d="M142.72 179.261C140.511 179.261 138.72 177.47 138.72 175.261C138.72 173.052 140.511 171.261 142.72 171.261C161.654 171.261 177.656 157.744 180.771 139.12C184.922 114.258 189.736 85.4557 189.736 85.4557C190.1 83.2767 192.165 81.8092 194.34 82.1697C196.519 82.5342 197.991 84.5957 197.626 86.7742C197.626 86.7742 192.813 115.577 188.661 140.438C184.9 162.934 165.578 179.261 142.72 179.261Z" fill="#FF9B00"/>
<path fill-rule="evenodd" clip-rule="evenodd" d="M31.8712 92.2976C31.7772 79.3056 21.1427 68.8471 8.11621 68.9401C8.11621 68.9401 8.11621 68.9401 8.11621 68.9421C8.20821 81.9346 18.8447 92.3906 31.8712 92.2976Z" fill="#FF9B00"/>
<path d="M31.6973 96.298C16.5948 96.2975 4.22183 84.038 4.11533 68.9705C4.09983 66.7615 5.87734 64.9565 8.08634 64.94L8.28784 64.9395C23.3878 64.9395 35.7608 77.1995 35.8698 92.2685C35.8773 93.3295 35.4633 94.3495 34.7183 95.1055C33.9738 95.861 32.9588 96.2895 31.8983 96.2975L31.6973 96.298ZM12.6778 73.4365C14.4348 80.541 20.1318 86.146 27.3023 87.7995C25.5388 80.687 19.8438 75.088 12.6778 73.4365Z" fill="#FF9B00"/>
<path fill-rule="evenodd" clip-rule="evenodd" d="M36.0586 122.456C30.0226 110.941 15.7696 106.489 4.22661 112.509C4.22461 112.509 4.22461 112.509 4.22461 112.509V112.511C10.2606 124.025 24.5126 128.477 36.0586 122.456Z" fill="#FF9B00"/>
<path d="M25.1481 129.139C25.1471 129.139 25.1471 129.139 25.1461 129.139C14.8326 129.139 5.45861 123.479 0.682108 114.369C0.381108 113.796 0.224609 113.158 0.224609 112.511C0.224609 110.928 1.14461 109.559 2.47911 108.91C6.38711 106.892 10.7611 105.826 15.1366 105.826C25.4506 105.826 34.8246 111.487 39.6016 120.599C40.0946 121.54 40.1936 122.638 39.8756 123.652C39.5581 124.666 38.8501 125.512 37.9081 126.003C33.9731 128.055 29.5606 129.139 25.1481 129.139ZM10.3396 114.422C14.0116 118.644 19.3711 121.139 25.1471 121.14H25.1481C26.7841 121.14 28.3866 120.941 29.9436 120.545C26.2716 116.322 20.9126 113.827 15.1371 113.827C13.5001 113.826 11.8971 114.026 10.3396 114.422Z" fill="#FF9B00"/>
<path fill-rule="evenodd" clip-rule="evenodd" d="M41.582 151.682H41.58C30.9345 144.193 16.2185 146.729 8.71001 157.346C8.70801 157.348 8.70801 157.348 8.70801 157.348C8.70801 157.348 8.70801 157.348 8.71001 157.348C19.3555 164.838 34.0715 162.302 41.58 151.684L41.582 151.682Z" fill="#FF9B00"/>
<path d="M22.2851 165.652C22.2846 165.652 22.2856 165.652 22.2851 165.652C16.5946 165.652 11.1201 163.922 6.45013 160.649C5.82063 160.219 5.31363 159.608 5.01013 158.872C4.47213 157.567 4.66613 156.091 5.48463 154.978C10.6511 147.714 19.0636 143.379 28.0041 143.379C33.6941 143.379 39.1686 145.108 43.8381 148.381C44.4661 148.81 44.9721 149.418 45.2756 150.151C45.8166 151.457 45.6246 152.935 44.8046 154.051C39.6391 161.316 31.2251 165.652 22.2851 165.652ZM15.0331 156.261C17.3251 157.177 19.7756 157.652 22.2851 157.652C27.1076 157.652 31.7121 155.879 35.2556 152.77C32.9636 151.853 30.5136 151.379 28.0041 151.379C23.1816 151.379 18.5766 153.151 15.0331 156.261Z" fill="#FF9B00"/>
<path d="M80.8463 179.26C69.6728 179.26 58.8603 175.251 50.4003 167.972C41.9378 160.69 36.3753 150.606 34.7383 139.576L26.8838 86.7011C26.5593 84.5161 28.0673 82.4816 30.2528 82.1571C32.4378 81.8331 34.4723 83.3406 34.7968 85.5261L42.6513 138.401C44.0068 147.53 48.6118 155.878 55.6188 161.907C62.6278 167.938 71.5873 171.26 80.8463 171.26C83.0553 171.26 84.8463 173.051 84.8463 175.26C84.8463 177.469 83.0553 179.26 80.8463 179.26Z" fill="#FF9B00"/>
<path d="M147.557 170.584H76.4404V212.767H147.557V170.584Z" fill="#FF9B00"/>
<path d="M112 185C109.791 185 108 183.327 108 181.263V126.737C108 124.673 109.791 123 112 123C114.209 123 116 124.673 116 126.737V181.263C116 183.327 114.209 185 112 185Z" fill="#FF9B00"/>
<path d="M165.236 172.459C173.254 165.049 184.339 167.557 189.995 178.065C181.976 185.475 170.891 182.966 165.236 172.461V172.459ZM58.7639 172.459H58.7629C50.7454 165.049 39.6604 167.557 34.0044 178.065C42.0224 185.475 53.1074 182.966 58.7629 172.461L58.7639 172.459Z" fill="#FF9B00"/>
<path d="M201.945 201.52H22.0566V241.389H201.945V201.52Z" fill="#CA9462"/>
<path d="M150.224 225.455H72.8301C70.6211 225.455 68.8301 223.664 68.8301 221.455C68.8301 219.246 70.6211 217.455 72.8301 217.455H150.224C152.433 217.455 154.224 219.246 154.224 221.455C154.224 223.664 152.433 225.455 150.224 225.455Z" fill="#FCDFB0"/>
<path d="M70 125C70 122.791 72.2351 121 74.9918 121L149.008 121C151.765 121 154 122.791 154 125C154 127.209 151.765 129 149.008 129L74.9918 129C72.2351 129 70 127.21 70 125Z" fill="#FFBF00"/>
<path d="M157.157 6.26929H67.8434C61.4002 6.26929 56.1556 11.5139 56.1556 17.9534V76.1279C56.1556 82.5711 61.4002 87.8157 67.8434 87.8157H81.0022C82.8815 87.8157 84.4053 86.2919 84.4053 84.4126C84.4053 82.5333 82.8815 81.0095 81.0022 81.0095H67.8434C65.1512 81.0095 62.9656 78.8239 62.9656 76.1317V17.9534C62.9656 15.2649 65.1512 13.0793 67.8434 13.0793H157.157C159.849 13.0793 162.034 15.2649 162.034 17.9534V76.1279C162.034 78.8201 159.849 81.0057 157.157 81.0057H143.998C142.119 81.0057 140.595 82.5295 140.595 84.4088C140.595 86.2881 142.119 87.8119 143.998 87.8119H157.153C163.596 87.8119 168.841 82.5674 168.841 76.1241V17.9534C168.841 11.5139 163.6 6.26929 157.157 6.26929Z" fill="#FFDB6F"/>
<path d="M128.491 32.0833C130.37 32.0833 131.894 30.5595 131.894 28.6802C131.894 26.8009 130.37 25.2771 128.491 25.2771H96.5051C94.6258 25.2771 93.1019 26.8009 93.1019 28.6802C93.1019 30.5595 94.6258 32.0833 96.5051 32.0833H128.491ZM78.2152 45.0644C78.2152 46.9437 79.739 48.4675 81.6183 48.4675H143.381C145.261 48.4675 146.784 46.9437 146.784 45.0644C146.784 43.1851 145.261 41.6613 143.381 41.6613H81.6183C79.739 41.6613 78.2152 43.1851 78.2152 45.0644Z" fill="#FFDB6F"/>
<path d="M112.5 56.4843C100.445 56.4843 90.633 66.2966 90.633 78.3512C90.633 85.8759 94.4521 92.5233 100.253 96.4596V111.324C100.253 112.348 100.714 113.313 101.504 113.959C102.294 114.602 103.315 114.852 104.34 114.659L112.504 112.991L120.664 114.659C120.894 114.704 121.117 114.731 121.348 114.731C122.123 114.731 122.887 114.462 123.5 113.963C124.29 113.316 124.751 112.348 124.751 111.328V96.4596C130.548 92.5233 134.367 85.8759 134.367 78.355C134.367 66.2966 124.555 56.4843 112.5 56.4843ZM117.941 107.157L113.184 106.181C112.734 106.094 112.269 106.094 111.819 106.181L107.059 107.157V99.5111C108.802 99.9611 110.617 100.226 112.496 100.226C114.379 100.226 116.194 99.9611 117.937 99.5111L117.941 107.157ZM112.5 93.4157C104.196 93.4157 97.4431 86.6586 97.4431 78.355C97.4431 70.0514 104.196 63.2981 112.5 63.2981C120.804 63.2981 127.557 70.0514 127.557 78.355C127.557 86.6586 120.804 93.4157 112.5 93.4157Z" fill="#FFBF00"/>
</svg>
