<svg width="224" height="250" viewBox="0 0 224 250" fill="none" xmlns="http://www.w3.org/2000/svg">
<path fill-rule="evenodd" clip-rule="evenodd" d="M192.65 101.298C192.744 88.3056 203.381 77.8471 216.407 77.9401C216.409 77.9401 216.409 77.9401 216.409 77.9401C216.409 77.9401 216.409 77.9401 216.409 77.9421C216.315 90.9346 205.679 101.391 192.652 101.298C192.65 101.298 192.65 101.298 192.65 101.298Z" fill="#FF9B00"/>
<path d="M192.825 105.298L192.624 105.297C191.563 105.289 190.548 104.861 189.803 104.105C189.058 103.349 188.643 102.329 188.65 101.268C188.759 86.199 201.133 73.9395 216.234 73.9395L216.435 73.94C218.633 73.9555 220.408 75.742 220.408 77.94C220.3 93.039 207.926 105.298 192.825 105.298ZM211.842 82.4375C204.677 84.0895 198.981 89.689 197.218 96.8C204.384 95.148 210.079 89.549 211.842 82.4375Z" fill="#FF9B00"/>
<path fill-rule="evenodd" clip-rule="evenodd" d="M187.941 131.456C193.978 119.941 208.232 115.489 219.775 121.509V121.511C213.737 133.025 199.485 137.477 187.941 131.456Z" fill="#FF9B00"/>
<path d="M198.852 138.139C194.439 138.139 190.026 137.054 186.092 135.003C185.15 134.511 184.442 133.665 184.124 132.652C183.806 131.638 183.905 130.539 184.399 129.599C189.176 120.487 198.551 114.826 208.865 114.826C213.279 114.826 217.691 115.911 221.625 117.963C222.947 118.652 223.776 120.019 223.776 121.509C223.776 122.156 223.619 122.796 223.318 123.369C218.54 132.479 209.165 138.139 198.852 138.139ZM194.057 129.544C195.614 129.94 197.216 130.139 198.852 130.139C204.628 130.139 209.988 127.644 213.661 123.42C212.104 123.025 210.501 122.826 208.865 122.826C203.09 122.826 197.73 125.321 194.057 129.544Z" fill="#FF9B00"/>
<path fill-rule="evenodd" clip-rule="evenodd" d="M182.941 160.682C193.587 153.193 208.306 155.729 215.813 166.346C215.813 166.348 215.813 166.348 215.813 166.348C205.168 173.838 190.45 171.302 182.941 160.684V160.682Z" fill="#FF9B00"/>
<path d="M202.237 174.651C193.272 174.651 184.838 170.293 179.676 162.993C179.198 162.318 178.941 161.511 178.941 160.684C178.941 159.382 179.575 158.159 180.639 157.41C185.318 154.118 190.809 152.379 196.518 152.379C205.484 152.379 213.918 156.737 219.079 164.037C219.557 164.712 219.813 165.519 219.813 166.346C219.813 167.648 219.179 168.87 218.115 169.619C213.436 172.911 207.945 174.651 202.237 174.651ZM189.265 161.769C192.808 164.879 197.414 166.651 202.237 166.651C204.747 166.651 207.197 166.177 209.49 165.26C205.947 162.151 201.341 160.378 196.518 160.378C194.008 160.378 191.557 160.852 189.265 161.769Z" fill="#FF9B00"/>
<path d="M142.72 188.261C140.511 188.261 138.72 186.47 138.72 184.261C138.72 182.052 140.511 180.261 142.72 180.261C161.654 180.261 177.656 166.744 180.771 148.12C184.922 123.258 189.736 94.4557 189.736 94.4557C190.1 92.2767 192.165 90.8092 194.34 91.1697C196.519 91.5342 197.991 93.5957 197.626 95.7742C197.626 95.7742 192.813 124.577 188.661 149.438C184.9 171.934 165.578 188.261 142.72 188.261Z" fill="#FF9B00"/>
<path fill-rule="evenodd" clip-rule="evenodd" d="M31.8712 101.298C31.7772 88.3056 21.1427 77.8471 8.11621 77.9401C8.11621 77.9401 8.11621 77.9401 8.11621 77.9421C8.20821 90.9346 18.8447 101.391 31.8712 101.298Z" fill="#FF9B00"/>
<path d="M31.6978 105.298C16.5953 105.297 4.22232 93.038 4.11582 77.9705C4.10032 75.7615 5.87782 73.9565 8.08682 73.94L8.28832 73.9395C23.3883 73.9395 35.7613 86.1995 35.8703 101.268C35.8778 102.329 35.4638 103.349 34.7188 104.105C33.9743 104.861 32.9593 105.289 31.8988 105.297L31.6978 105.298ZM12.6783 82.4365C14.4353 89.541 20.1323 95.146 27.3028 96.7995C25.5393 89.687 19.8443 84.088 12.6783 82.4365Z" fill="#FF9B00"/>
<path fill-rule="evenodd" clip-rule="evenodd" d="M36.0586 131.456C30.0226 119.941 15.7696 115.489 4.22661 121.509C4.22461 121.509 4.22461 121.509 4.22461 121.509V121.511C10.2606 133.025 24.5126 137.477 36.0586 131.456Z" fill="#FF9B00"/>
<path d="M25.1481 138.139C25.1471 138.139 25.1471 138.139 25.1461 138.139C14.8326 138.139 5.45861 132.479 0.682108 123.369C0.381108 122.796 0.224609 122.158 0.224609 121.511C0.224609 119.928 1.14461 118.559 2.47911 117.91C6.38711 115.892 10.7611 114.826 15.1366 114.826C25.4506 114.826 34.8246 120.487 39.6016 129.599C40.0946 130.54 40.1936 131.638 39.8756 132.652C39.5581 133.666 38.8501 134.512 37.9081 135.003C33.9731 137.055 29.5606 138.139 25.1481 138.139ZM10.3396 123.422C14.0116 127.644 19.3711 130.139 25.1471 130.14H25.1481C26.7841 130.14 28.3866 129.941 29.9436 129.545C26.2716 125.322 20.9126 122.827 15.1371 122.827C13.5001 122.826 11.8971 123.026 10.3396 123.422Z" fill="#FF9B00"/>
<path fill-rule="evenodd" clip-rule="evenodd" d="M41.582 160.682H41.58C30.9345 153.193 16.2185 155.729 8.71001 166.346C8.70801 166.348 8.70801 166.348 8.70801 166.348C8.70801 166.348 8.70801 166.348 8.71001 166.348C19.3555 173.838 34.0715 171.302 41.58 160.684L41.582 160.682Z" fill="#FF9B00"/>
<path d="M22.2856 174.652C22.2851 174.652 22.2861 174.652 22.2856 174.652C16.5951 174.652 11.1206 172.922 6.45062 169.649C5.82112 169.219 5.31412 168.608 5.01062 167.872C4.47262 166.567 4.66662 165.091 5.48512 163.978C10.6516 156.714 19.0641 152.379 28.0046 152.379C33.6946 152.379 39.1691 154.108 43.8386 157.381C44.4666 157.81 44.9726 158.418 45.2761 159.151C45.8171 160.457 45.6251 161.935 44.8051 163.051C39.6396 170.316 31.2256 174.652 22.2856 174.652ZM15.0336 165.261C17.3256 166.177 19.7761 166.652 22.2856 166.652C27.1081 166.652 31.7126 164.879 35.2561 161.77C32.9641 160.853 30.5141 160.379 28.0046 160.379C23.1821 160.379 18.5771 162.151 15.0336 165.261Z" fill="#FF9B00"/>
<path d="M80.8463 188.26C69.6728 188.26 58.8603 184.251 50.4003 176.972C41.9378 169.69 36.3753 159.606 34.7383 148.576L26.8838 95.7011C26.5593 93.5161 28.0673 91.4816 30.2528 91.1571C32.4378 90.8331 34.4723 92.3406 34.7968 94.5261L42.6513 147.401C44.0068 156.53 48.6118 164.878 55.6188 170.907C62.6278 176.938 71.5873 180.26 80.8463 180.26C83.0553 180.26 84.8463 182.051 84.8463 184.26C84.8463 186.469 83.0553 188.26 80.8463 188.26Z" fill="#FF9B00"/>
<path d="M147.557 179.584H76.4404V221.767H147.557V179.584Z" fill="#FF9B00"/>
<path d="M112 194.473C109.791 194.473 108 192.682 108 190.473V132.115C108 129.906 109.791 128.115 112 128.115C114.209 128.115 116 129.906 116 132.115V190.473C116 192.682 114.209 194.473 112 194.473Z" fill="#FF9B00"/>
<path d="M165.236 181.459C173.254 174.049 184.339 176.557 189.995 187.065C181.976 194.475 170.891 191.966 165.236 181.461V181.459ZM58.7639 181.459H58.7629C50.7454 174.049 39.6604 176.557 34.0044 187.065C42.0224 194.475 53.1074 191.966 58.7629 181.461L58.7639 181.459Z" fill="#FF9B00"/>
<path d="M201.944 210.52H22.0562V250.389H201.944V210.52Z" fill="#CA9462"/>
<path d="M150.224 234.455H72.8296C70.6206 234.455 68.8296 232.664 68.8296 230.455C68.8296 228.246 70.6206 226.455 72.8296 226.455H150.224C152.433 226.455 154.224 228.246 154.224 230.455C154.224 232.664 152.433 234.455 150.224 234.455Z" fill="#FCDFB0"/>
<path d="M70 131C70 128.791 72.2351 127 74.9918 127L149.008 127C151.765 127 154 128.791 154 131C154 133.209 151.765 135 149.008 135L74.9918 135C72.2351 135 70 133.21 70 131Z" fill="#FFBF00"/>
<path d="M127.661 65.4464L120.189 63.586L116.113 57.0558C114.113 53.8493 108.883 53.8531 106.887 57.0558L102.807 63.586L95.3313 65.4464C93.5012 65.9039 92.0605 67.2501 91.4782 69.0424C90.8959 70.8347 91.2703 72.7707 92.484 74.2227L97.4337 80.1176L96.893 87.7974C96.7606 89.6766 97.5925 91.4652 99.1164 92.5731C100.644 93.6848 102.606 93.9343 104.357 93.2197L111.5 90.3346L118.643 93.2235C119.304 93.4881 119.996 93.6205 120.685 93.6205C121.815 93.6205 122.931 93.2613 123.88 92.5731C125.404 91.4652 126.235 89.6766 126.103 87.7936L125.562 80.1176L130.516 74.2189C131.73 72.7707 132.104 70.8347 131.522 69.0424C130.939 67.2501 129.495 65.9039 127.661 65.4464ZM119.463 76.7939C118.896 77.4708 118.612 78.3405 118.677 79.2253L119.157 86.092L112.774 83.5094C112.366 83.343 111.931 83.2599 111.5 83.2599C111.069 83.2599 110.634 83.343 110.226 83.5094L103.843 86.092L104.323 79.2253C104.384 78.3442 104.1 77.4708 103.537 76.7939L99.1088 71.5191L105.794 69.8553C106.649 69.6436 107.39 69.1066 107.855 68.358L111.5 62.5159L115.149 68.3542C115.618 69.1029 116.355 69.6436 117.21 69.8516L123.895 71.5153L119.463 76.7939Z" fill="#FFBF00"/>
<path d="M138.358 44.9447V11.6092C138.358 7.50278 135.016 4.16016 130.909 4.16016H92.0908C87.9844 4.16016 84.6418 7.50278 84.6418 11.6092V44.9447C75.9978 52.4656 70.5037 63.5144 70.5037 75.8451C70.5037 98.4494 88.8957 116.841 111.5 116.841C134.104 116.841 152.496 98.4494 152.496 75.8451C152.496 63.5182 146.998 52.4694 138.358 44.9447ZM131.552 11.6092V40.1236C128.792 38.5695 125.835 37.3368 122.73 36.4482V10.9664H130.909C131.265 10.9664 131.552 11.2576 131.552 11.6092ZM111.5 34.8488C110.003 34.8488 108.532 34.9395 107.076 35.0983V10.9664H115.924V35.0983C114.468 34.9433 112.997 34.8488 111.5 34.8488ZM91.448 11.6092C91.448 11.2538 91.7354 10.9664 92.0908 10.9664H100.27V36.452C97.1653 37.3406 94.2083 38.5695 91.448 40.1274V11.6092ZM111.5 110.035C92.6467 110.035 77.3099 94.6984 77.3099 75.8489C77.3099 56.9956 92.6467 41.6588 111.5 41.6588C130.353 41.6588 145.69 56.9993 145.69 75.8489C145.69 94.6984 130.353 110.035 111.5 110.035Z" fill="#FFDB6F"/>
</svg>
