<svg width="18" height="15" viewBox="0 0 18 15" fill="none" xmlns="http://www.w3.org/2000/svg">
<path d="M12 7.5H16.4175C16.2781 8.42824 15.9467 9.31721 15.4443 10.1101C14.942 10.903 14.2798 11.5825 13.5 12.105L12.1575 13.005L12.9825 14.25L14.325 13.35C15.455 12.5969 16.3817 11.5766 17.0228 10.3795C17.6639 9.18234 17.9995 7.84547 18 6.4875V1.5C18 1.10218 17.842 0.720645 17.5607 0.439341C17.2794 0.158035 16.8978 0 16.5 0H12C11.6022 0 11.2206 0.158035 10.9393 0.439341C10.658 0.720645 10.5 1.10218 10.5 1.5V6C10.5 6.39782 10.658 6.77936 10.9393 7.06066C11.2206 7.34196 11.6022 7.5 12 7.5Z" fill="#0050A4"/>
<path d="M1.5 7.5H5.9175C5.77811 8.42824 5.44666 9.31721 4.94431 10.1101C4.44196 10.903 3.77976 11.5825 3 12.105L1.6575 13.005L2.475 14.25L3.825 13.35C4.95504 12.5969 5.88172 11.5766 6.5228 10.3795C7.16388 9.18234 7.49954 7.84547 7.5 6.4875V1.5C7.5 1.10217 7.34196 0.720645 7.06066 0.439341C6.77936 0.158036 6.39782 0 6 0H1.5C1.10218 0 0.720644 0.158036 0.43934 0.439341C0.158036 0.720645 0 1.10217 0 1.5V6C0 6.39782 0.158036 6.77936 0.43934 7.06066C0.720644 7.34196 1.10218 7.5 1.5 7.5Z" fill="#0050A4"/>
</svg>
