<svg width="355" height="22" viewBox="0 0 355 22" fill="none" xmlns="http://www.w3.org/2000/svg">
<path fill-rule="evenodd" clip-rule="evenodd" d="M0 4C0 1.79086 1.79086 0 4 0H351C353.209 0 355 1.79086 355 4C355 6.20914 353.209 8 351 8H4C1.79086 8 0 6.20914 0 4Z" fill="#F2F2F2"/>
<path fill-rule="evenodd" clip-rule="evenodd" d="M274 4C274 1.79086 275.791 0 278 0H290C292.209 0 294 1.79086 294 4C294 6.20914 292.209 8 290 8H278C275.791 8 274 6.20914 274 4Z" fill="#0C60C2"/>
<path d="M276.93 20.26C277.203 20.26 277.447 20.2067 277.66 20.1C277.88 19.9867 278.05 19.83 278.17 19.63C278.29 19.43 278.35 19.2033 278.35 18.95C278.35 18.6967 278.29 18.47 278.17 18.27C278.05 18.07 277.88 17.9167 277.66 17.81C277.447 17.6967 277.203 17.64 276.93 17.64C276.657 17.64 276.41 17.6967 276.19 17.81C275.97 17.9167 275.797 18.07 275.67 18.27C275.55 18.47 275.49 18.6967 275.49 18.95C275.49 19.2033 275.55 19.43 275.67 19.63C275.797 19.83 275.967 19.9867 276.18 20.1C276.4 20.2067 276.65 20.26 276.93 20.26ZM275.7 15.63C275.7 15.9633 275.813 16.2333 276.04 16.44C276.267 16.6467 276.563 16.75 276.93 16.75C277.29 16.75 277.583 16.6467 277.81 16.44C278.043 16.2267 278.16 15.9567 278.16 15.63C278.16 15.3033 278.043 15.0367 277.81 14.83C277.583 14.6167 277.29 14.51 276.93 14.51C276.563 14.51 276.267 14.6167 276.04 14.83C275.813 15.0367 275.7 15.3033 275.7 15.63ZM278.2 17.2C278.553 17.4 278.84 17.6667 279.06 18C279.28 18.3267 279.39 18.65 279.39 18.97C279.39 19.39 279.287 19.7667 279.08 20.1C278.873 20.4267 278.583 20.6833 278.21 20.87C277.837 21.05 277.41 21.14 276.93 21.14C276.45 21.14 276.023 21.05 275.65 20.87C275.277 20.6833 274.983 20.4267 274.77 20.1C274.557 19.7667 274.45 19.39 274.45 18.97C274.45 18.6433 274.56 18.3167 274.78 17.99C275.007 17.6567 275.3 17.3933 275.66 17.2C275.367 17 275.127 16.7533 274.94 16.46C274.753 16.1667 274.66 15.89 274.66 15.63C274.66 15.2433 274.753 14.9 274.94 14.6C275.133 14.2933 275.403 14.0567 275.75 13.89C276.097 13.7167 276.49 13.63 276.93 13.63C277.37 13.63 277.76 13.7167 278.1 13.89C278.447 14.0567 278.717 14.2933 278.91 14.6C279.103 14.9 279.2 15.2433 279.2 15.63C279.2 15.89 279.107 16.17 278.92 16.47C278.733 16.7633 278.493 17.0067 278.2 17.2ZM283.02 20.18C283.353 20.18 283.646 20.0633 283.9 19.83C284.153 19.5967 284.35 19.27 284.49 18.85C284.63 18.4233 284.7 17.9333 284.7 17.38C284.7 16.8333 284.63 16.35 284.49 15.93C284.35 15.5033 284.153 15.1767 283.9 14.95C283.646 14.7167 283.353 14.6 283.02 14.6C282.686 14.6 282.393 14.7167 282.14 14.95C281.886 15.1767 281.686 15.5033 281.54 15.93C281.4 16.35 281.33 16.8333 281.33 17.38C281.33 17.9333 281.4 18.4233 281.54 18.85C281.686 19.27 281.886 19.5967 282.14 19.83C282.393 20.0633 282.686 20.18 283.02 20.18ZM283.02 21.09C282.493 21.09 282.023 20.9333 281.61 20.62C281.196 20.3067 280.873 19.87 280.64 19.31C280.406 18.7433 280.29 18.1 280.29 17.38C280.29 16.6667 280.406 16.03 280.64 15.47C280.873 14.91 281.196 14.4733 281.61 14.16C282.023 13.84 282.493 13.68 283.02 13.68C283.546 13.68 284.016 13.84 284.43 14.16C284.843 14.4733 285.163 14.91 285.39 15.47C285.623 16.03 285.74 16.67 285.74 17.39C285.74 18.1033 285.623 18.7433 285.39 19.31C285.163 19.87 284.843 20.3067 284.43 20.62C284.016 20.9333 283.546 21.09 283.02 21.09ZM293.307 13.71H294.387L289.767 21.05H288.707L293.307 13.71ZM288.967 17.58C288.614 17.58 288.287 17.4933 287.987 17.32C287.694 17.14 287.461 16.9 287.287 16.6C287.114 16.2933 287.027 15.9533 287.027 15.58C287.027 15.2133 287.114 14.88 287.287 14.58C287.461 14.2733 287.694 14.03 287.987 13.85C288.287 13.67 288.614 13.58 288.967 13.58C289.327 13.58 289.654 13.67 289.947 13.85C290.247 14.0233 290.481 14.2633 290.647 14.57C290.821 14.8767 290.907 15.2133 290.907 15.58C290.907 15.9533 290.821 16.2933 290.647 16.6C290.481 16.9 290.247 17.14 289.947 17.32C289.654 17.4933 289.327 17.58 288.967 17.58ZM288.977 16.6C289.151 16.6 289.311 16.5567 289.457 16.47C289.611 16.3833 289.727 16.2633 289.807 16.11C289.894 15.95 289.937 15.7767 289.937 15.59C289.937 15.3967 289.894 15.2233 289.807 15.07C289.721 14.91 289.604 14.7867 289.457 14.7C289.311 14.6067 289.151 14.56 288.977 14.56C288.797 14.56 288.634 14.6067 288.487 14.7C288.341 14.7867 288.224 14.91 288.137 15.07C288.051 15.2233 288.007 15.3933 288.007 15.58C288.007 15.7667 288.051 15.94 288.137 16.1C288.224 16.2533 288.341 16.3767 288.487 16.47C288.634 16.5567 288.797 16.6 288.977 16.6ZM294.037 21.12C293.684 21.12 293.357 21.0333 293.057 20.86C292.757 20.68 292.521 20.44 292.347 20.14C292.174 19.8333 292.087 19.4933 292.087 19.12C292.087 18.7533 292.174 18.4167 292.347 18.11C292.521 17.8033 292.757 17.5633 293.057 17.39C293.357 17.21 293.684 17.12 294.037 17.12C294.391 17.12 294.714 17.21 295.007 17.39C295.307 17.5633 295.544 17.8033 295.717 18.11C295.891 18.4167 295.977 18.7533 295.977 19.12C295.977 19.4933 295.891 19.8333 295.717 20.14C295.544 20.44 295.307 20.68 295.007 20.86C294.714 21.0333 294.391 21.12 294.037 21.12ZM294.037 20.14C294.217 20.14 294.381 20.0967 294.527 20.01C294.674 19.9167 294.791 19.7933 294.877 19.64C294.964 19.48 295.007 19.3067 295.007 19.12C295.007 18.9333 294.964 18.7633 294.877 18.61C294.791 18.45 294.674 18.3267 294.527 18.24C294.381 18.1467 294.217 18.1 294.037 18.1C293.864 18.1 293.701 18.1467 293.547 18.24C293.401 18.3267 293.284 18.45 293.197 18.61C293.117 18.7633 293.077 18.9333 293.077 19.12C293.077 19.3067 293.121 19.48 293.207 19.64C293.294 19.7933 293.411 19.9167 293.557 20.01C293.704 20.0967 293.864 20.14 294.037 20.14Z" fill="#0C60C2"/>
<path fill-rule="evenodd" clip-rule="evenodd" d="M201 4C201 1.79086 202.791 0 205 0H217C219.209 0 221 1.79086 221 4C221 6.20914 219.209 8 217 8H205C202.791 8 201 6.20914 201 4Z" fill="#C8CDDF"/>
<path d="M203.95 20.19C204.237 20.19 204.49 20.1267 204.71 20C204.937 19.8667 205.113 19.6867 205.24 19.46C205.367 19.2267 205.43 18.9667 205.43 18.68C205.43 18.3867 205.367 18.1233 205.24 17.89C205.113 17.6567 204.937 17.4767 204.71 17.35C204.49 17.2233 204.237 17.16 203.95 17.16C203.67 17.16 203.417 17.2233 203.19 17.35C202.97 17.4767 202.797 17.6567 202.67 17.89C202.55 18.1233 202.49 18.3867 202.49 18.68C202.49 18.9667 202.553 19.2267 202.68 19.46C202.807 19.6867 202.98 19.8667 203.2 20C203.42 20.1267 203.67 20.19 203.95 20.19ZM201.45 18.68C201.45 18.2333 201.583 17.7733 201.85 17.3L203.86 13.74H205.05L203.59 16.29C203.737 16.2633 203.87 16.25 203.99 16.25C204.47 16.25 204.897 16.3567 205.27 16.57C205.65 16.7767 205.943 17.0633 206.15 17.43C206.363 17.79 206.47 18.2067 206.47 18.68C206.47 19.1533 206.363 19.5733 206.15 19.94C205.937 20.3 205.64 20.5833 205.26 20.79C204.88 20.9967 204.447 21.1 203.96 21.1C203.473 21.1 203.04 20.9967 202.66 20.79C202.287 20.5833 201.99 20.3 201.77 19.94C201.557 19.5733 201.45 19.1533 201.45 18.68ZM207.958 17.07C208.178 16.8233 208.464 16.6233 208.818 16.47C209.171 16.31 209.514 16.23 209.848 16.23C210.348 16.23 210.791 16.3333 211.178 16.54C211.564 16.7467 211.864 17.0333 212.077 17.4C212.298 17.7667 212.408 18.1867 212.408 18.66C212.408 19.14 212.298 19.5667 212.077 19.94C211.864 20.3133 211.564 20.6033 211.178 20.81C210.791 21.0167 210.348 21.12 209.848 21.12C209.461 21.12 209.098 21.04 208.758 20.88C208.418 20.72 208.128 20.4967 207.888 20.21C207.648 19.9167 207.484 19.59 207.398 19.23L208.407 18.99C208.488 19.33 208.661 19.61 208.928 19.83C209.194 20.0433 209.501 20.15 209.848 20.15C210.141 20.15 210.401 20.0867 210.628 19.96C210.861 19.8333 211.041 19.6567 211.168 19.43C211.301 19.2033 211.368 18.9467 211.368 18.66C211.368 18.38 211.301 18.13 211.168 17.91C211.041 17.69 210.861 17.52 210.628 17.4C210.401 17.2733 210.141 17.21 209.848 17.21C209.668 17.21 209.471 17.2633 209.258 17.37C209.051 17.47 208.871 17.6 208.718 17.76L207.958 17.07ZM207.688 17.63L207.928 13.75H211.808V14.66H208.928L208.718 17.76L207.688 17.63ZM219.975 13.71H221.055L216.435 21.05H215.375L219.975 13.71ZM215.635 17.58C215.282 17.58 214.955 17.4933 214.655 17.32C214.362 17.14 214.129 16.9 213.955 16.6C213.782 16.2933 213.695 15.9533 213.695 15.58C213.695 15.2133 213.782 14.88 213.955 14.58C214.129 14.2733 214.362 14.03 214.655 13.85C214.955 13.67 215.282 13.58 215.635 13.58C215.995 13.58 216.322 13.67 216.615 13.85C216.915 14.0233 217.149 14.2633 217.315 14.57C217.489 14.8767 217.575 15.2133 217.575 15.58C217.575 15.9533 217.489 16.2933 217.315 16.6C217.149 16.9 216.915 17.14 216.615 17.32C216.322 17.4933 215.995 17.58 215.635 17.58ZM215.645 16.6C215.819 16.6 215.979 16.5567 216.125 16.47C216.279 16.3833 216.395 16.2633 216.475 16.11C216.562 15.95 216.605 15.7767 216.605 15.59C216.605 15.3967 216.562 15.2233 216.475 15.07C216.389 14.91 216.272 14.7867 216.125 14.7C215.979 14.6067 215.819 14.56 215.645 14.56C215.465 14.56 215.302 14.6067 215.155 14.7C215.009 14.7867 214.892 14.91 214.805 15.07C214.719 15.2233 214.675 15.3933 214.675 15.58C214.675 15.7667 214.719 15.94 214.805 16.1C214.892 16.2533 215.009 16.3767 215.155 16.47C215.302 16.5567 215.465 16.6 215.645 16.6ZM220.705 21.12C220.352 21.12 220.025 21.0333 219.725 20.86C219.425 20.68 219.189 20.44 219.015 20.14C218.842 19.8333 218.755 19.4933 218.755 19.12C218.755 18.7533 218.842 18.4167 219.015 18.11C219.189 17.8033 219.425 17.5633 219.725 17.39C220.025 17.21 220.352 17.12 220.705 17.12C221.059 17.12 221.382 17.21 221.675 17.39C221.975 17.5633 222.212 17.8033 222.385 18.11C222.559 18.4167 222.645 18.7533 222.645 19.12C222.645 19.4933 222.559 19.8333 222.385 20.14C222.212 20.44 221.975 20.68 221.675 20.86C221.382 21.0333 221.059 21.12 220.705 21.12ZM220.705 20.14C220.885 20.14 221.049 20.0967 221.195 20.01C221.342 19.9167 221.459 19.7933 221.545 19.64C221.632 19.48 221.675 19.3067 221.675 19.12C221.675 18.9333 221.632 18.7633 221.545 18.61C221.459 18.45 221.342 18.3267 221.195 18.24C221.049 18.1467 220.885 18.1 220.705 18.1C220.532 18.1 220.369 18.1467 220.215 18.24C220.069 18.3267 219.952 18.45 219.865 18.61C219.785 18.7633 219.745 18.9333 219.745 19.12C219.745 19.3067 219.789 19.48 219.875 19.64C219.962 19.7933 220.079 19.9167 220.225 20.01C220.372 20.0967 220.532 20.14 220.705 20.14Z" fill="#8EA0AE"/>
</svg>
