<svg width="28" height="28" viewBox="0 0 28 28" fill="none" xmlns="http://www.w3.org/2000/svg">
<path d="M14 8.09375C14.6041 8.09375 15.0938 7.60406 15.0938 7C15.0938 6.39594 14.6041 5.90625 14 5.90625C13.3959 5.90625 12.9062 6.39594 12.9062 7C12.9062 7.60406 13.3959 8.09375 14 8.09375Z" fill="black"/>
<path d="M14 15.0938C14.6041 15.0938 15.0938 14.6041 15.0938 14C15.0938 13.3959 14.6041 12.9062 14 12.9062C13.3959 12.9062 12.9062 13.3959 12.9062 14C12.9062 14.6041 13.3959 15.0938 14 15.0938Z" fill="black"/>
<path d="M14 22.0938C14.6041 22.0938 15.0938 21.6041 15.0938 21C15.0938 20.3959 14.6041 19.9062 14 19.9062C13.3959 19.9062 12.9062 20.3959 12.9062 21C12.9062 21.6041 13.3959 22.0938 14 22.0938Z" fill="black"/>
</svg>
