<svg width="25" height="24" viewBox="0 0 25 24" fill="none" xmlns="http://www.w3.org/2000/svg">
<g id="ArrowSquareOut">
<path id="Vector" d="M21.5 9.37491C21.5 9.57382 21.421 9.76459 21.2804 9.90526C21.1398 10.0459 20.949 10.125 20.7501 10.125C20.5512 10.125 20.3604 10.046 20.2197 9.9054C20.0791 9.76476 20 9.57401 20 9.37509L19.9995 5.56119L14.5276 11.033C14.387 11.1737 14.1962 11.2527 13.9973 11.2527C13.7983 11.2527 13.6076 11.1736 13.4669 11.033C13.3263 10.8923 13.2473 10.7015 13.2473 10.5026C13.2473 10.3037 13.3263 10.1129 13.467 9.97229L18.9388 4.50051L15.1249 4.5C14.926 4.49999 14.7352 4.42096 14.5946 4.2803C14.4539 4.13964 14.3749 3.94887 14.375 3.74995C14.375 3.55104 14.454 3.36028 14.5947 3.21964C14.7353 3.07899 14.9261 2.99999 15.125 3H15.1251L20.7494 3.00073C20.9482 3.00076 21.139 3.07977 21.2796 3.2204C21.4202 3.36103 21.4992 3.55176 21.4993 3.75064L21.5 9.37491ZM17.75 12.75C17.5511 12.75 17.3603 12.829 17.2197 12.9697C17.079 13.1103 17 13.3011 17 13.5V19.5H5V7.5H11C11.1989 7.5 11.3897 7.42098 11.5303 7.28033C11.671 7.13968 11.75 6.94891 11.75 6.75C11.75 6.55109 11.671 6.36032 11.5303 6.21967C11.3897 6.07902 11.1989 6 11 6H5C4.60231 6.00045 4.22105 6.15864 3.93984 6.43984C3.65864 6.72105 3.50045 7.10231 3.5 7.5V19.5C3.50045 19.8977 3.65864 20.279 3.93984 20.5602C4.22105 20.8414 4.60231 20.9995 5 21H17C17.3977 20.9995 17.779 20.8414 18.0602 20.5602C18.3414 20.279 18.4995 19.8977 18.5 19.5V13.5C18.5 13.3011 18.421 13.1103 18.2803 12.9697C18.1397 12.829 17.9489 12.75 17.75 12.75Z" fill="#181818"/>
</g>
</svg>
