<svg width="16" height="16" viewBox="0 0 16 16" fill="none" xmlns="http://www.w3.org/2000/svg">
<g id="ArrowsCounterClockwise">
<path id="Vector" d="M5.17969 6.34277H2.36719V3.53027" stroke="#181818" stroke-width="1.5" stroke-linecap="round" stroke-linejoin="round"/>
<path id="Vector_2" d="M11.648 4.35398C11.1692 3.87518 10.6007 3.49537 9.97516 3.23625C9.34957 2.97712 8.67907 2.84375 8.00194 2.84375C7.32482 2.84375 6.65432 2.97712 6.02873 3.23625C5.40315 3.49537 4.83473 3.87518 4.35592 4.35398L2.36719 6.34272" stroke="#181818" stroke-width="1.5" stroke-linecap="round" stroke-linejoin="round"/>
<path id="Vector_3" d="M10.8203 9.65723H13.6328V12.4697" stroke="#181818" stroke-width="1.5" stroke-linecap="round" stroke-linejoin="round"/>
<path id="Vector_4" d="M4.35547 11.646C4.83427 12.1248 5.40269 12.5046 6.02828 12.7637C6.65386 13.0228 7.32436 13.1562 8.00149 13.1562C8.67862 13.1562 9.34912 13.0228 9.9747 12.7637C10.6003 12.5046 11.1687 12.1248 11.6475 11.646L13.6362 9.65723" stroke="#181818" stroke-width="1.5" stroke-linecap="round" stroke-linejoin="round"/>
</g>
</svg>
