<svg width="29" height="28" viewBox="0 0 29 28" fill="none" xmlns="http://www.w3.org/2000/svg">
<g id="ArrowCounterClockwise">
<path id="Vector" d="M21.9273 6.57439C19.9566 4.60815 17.2865 3.50391 14.5026 3.50391C11.7188 3.50391 9.04865 4.60815 7.07796 6.57439L4.85938 8.79297V5.65544C4.85938 5.42338 4.76719 5.20082 4.60309 5.03672C4.439 4.87263 4.21644 4.78044 3.98438 4.78044C3.75231 4.78044 3.52975 4.87263 3.36566 5.03672C3.20156 5.20082 3.10938 5.42338 3.10938 5.65544V10.9049C3.10938 10.934 3.11084 10.9631 3.11375 10.9921C3.1149 11.0038 3.11717 11.0153 3.11877 11.0269C3.12109 11.0436 3.1231 11.0602 3.12638 11.0767C3.12913 11.0905 3.13295 11.1039 3.13631 11.1175C3.13984 11.1316 3.14296 11.1458 3.14718 11.1598C3.15124 11.1732 3.15631 11.1861 3.16099 11.1992C3.16593 11.213 3.17049 11.227 3.17613 11.2406C3.18117 11.2527 3.18713 11.2644 3.19268 11.2762C3.19925 11.2903 3.20553 11.3044 3.2129 11.3182C3.21893 11.3294 3.22582 11.3401 3.23231 11.3511C3.24037 11.3646 3.24806 11.3783 3.2569 11.3915C3.26494 11.4035 3.27389 11.4148 3.28248 11.4263C3.29092 11.4377 3.2988 11.4492 3.30785 11.4602C3.32412 11.48 3.34142 11.4989 3.35931 11.5172C3.3615 11.5194 3.36337 11.5219 3.36561 11.5241C3.36737 11.5259 3.36932 11.5274 3.37108 11.5291C3.38985 11.5476 3.40932 11.5653 3.42969 11.5821C3.43997 11.5905 3.45081 11.5978 3.46136 11.6057C3.47367 11.6149 3.48572 11.6245 3.49853 11.6331C3.51089 11.6413 3.52374 11.6485 3.53642 11.6561C3.54825 11.6631 3.55984 11.6706 3.57202 11.6771C3.58478 11.6839 3.59792 11.6897 3.61096 11.6959C3.62383 11.702 3.63651 11.7084 3.64973 11.7138C3.66217 11.719 3.67486 11.7231 3.68746 11.7277C3.7018 11.7328 3.71596 11.7383 3.73064 11.7428C3.74308 11.7465 3.75574 11.7493 3.76832 11.7525C3.78338 11.7563 3.79828 11.7605 3.81363 11.7635C3.82789 11.7663 3.84231 11.768 3.85668 11.7701C3.87057 11.7721 3.88424 11.7747 3.89834 11.7761C3.9237 11.7786 3.9492 11.7797 3.97471 11.78C3.97796 11.78 3.98111 11.7804 3.98437 11.7804H9.23437C9.46644 11.7804 9.689 11.6883 9.85309 11.5242C10.0172 11.3601 10.1094 11.1375 10.1094 10.9054C10.1094 10.6734 10.0172 10.4508 9.85309 10.2867C9.689 10.1226 9.46644 10.0304 9.23437 10.0304H6.09684L8.31548 7.8118C9.53919 6.5881 11.0983 5.75474 12.7956 5.41713C14.4929 5.07951 16.2523 5.25279 17.8511 5.91506C19.45 6.57733 20.8165 7.69883 21.778 9.13776C22.7395 10.5767 23.2526 12.2684 23.2526 13.999C23.2526 15.7296 22.7395 17.4213 21.778 18.8602C20.8165 20.2992 19.45 21.4207 17.8511 22.0829C16.2523 22.7452 14.4929 22.9185 12.7956 22.5809C11.0983 22.2432 9.53919 21.4099 8.31548 20.1862C8.23422 20.1049 8.13775 20.0405 8.03159 19.9965C7.92542 19.9525 7.81163 19.9299 7.69672 19.9299C7.5818 19.9299 7.46801 19.9525 7.36185 19.9965C7.25568 20.0405 7.15921 20.1049 7.07796 20.1862C6.9967 20.2674 6.93225 20.3639 6.88827 20.4701C6.84429 20.5762 6.82166 20.69 6.82166 20.8049C6.82166 20.9199 6.84429 21.0336 6.88827 21.1398C6.93225 21.246 6.9967 21.3424 7.07796 21.4237C8.0529 22.3991 9.21043 23.1729 10.4845 23.7009C11.7585 24.2289 13.124 24.5007 14.5031 24.5009C15.8822 24.501 17.2479 24.2295 18.522 23.7018C19.7962 23.1742 20.9539 22.4007 21.9291 21.4255C22.9042 20.4503 23.6777 19.2926 24.2054 18.0184C24.7331 16.7443 25.0046 15.3787 25.0045 13.9996C25.0043 12.6205 24.7325 11.2549 24.2045 9.9809C23.6765 8.70687 22.9027 7.54933 21.9273 6.57439Z" fill="#0C60C2"/>
</g>
</svg>
