<svg width="50" height="50" viewBox="0 0 50 50" fill="none" xmlns="http://www.w3.org/2000/svg">
<path d="M39.1219 25.1326C39.1219 32.8587 32.8587 39.1219 25.1326 39.1219C17.4066 39.1219 11.1434 32.8587 11.1434 25.1326C11.1434 17.4066 17.4066 11.1434 25.1326 11.1434C32.8587 11.1434 39.1219 17.4066 39.1219 25.1326Z" fill="white"/>
<path fill-rule="evenodd" clip-rule="evenodd" d="M45.67 24.835C45.67 13.3278 36.3422 4 24.835 4C13.3278 4 4 13.3278 4 24.835C4 36.3422 13.3278 45.67 24.835 45.67C36.3422 45.67 45.67 36.3422 45.67 24.835ZM17.4802 23.8558C17.1876 23.5628 17.0232 23.1656 17.0232 22.7515C17.0232 22.3374 17.1876 21.9402 17.4802 21.6472L23.7307 15.3967C24.0237 15.1041 24.4209 14.9397 24.835 14.9397C25.2491 14.9397 25.6463 15.1041 25.9393 15.3967L32.1898 21.6472C32.3433 21.7903 32.4664 21.9628 32.5518 22.1545C32.6372 22.3462 32.6832 22.5531 32.6869 22.7629C32.6906 22.9727 32.652 23.1811 32.5734 23.3757C32.4948 23.5703 32.3778 23.747 32.2294 23.8954C32.081 24.0438 31.9043 24.1608 31.7097 24.2394C31.5151 24.318 31.3067 24.3566 31.0969 24.3529C30.8871 24.3492 30.6802 24.3032 30.4885 24.2178C30.2968 24.1324 30.1243 24.0093 29.9812 23.8558L26.3976 20.2721V33.169C26.3976 33.5834 26.233 33.9809 25.9399 34.2739C25.6469 34.567 25.2494 34.7316 24.835 34.7316C24.4206 34.7316 24.0231 34.567 23.7301 34.2739C23.437 33.9809 23.2724 33.5834 23.2724 33.169V20.2721L19.6888 23.8558C19.3958 24.1484 18.9986 24.3127 18.5845 24.3127C18.1704 24.3127 17.7732 24.1484 17.4802 23.8558Z" fill="#204F9E"/>
</svg>
