<svg width="24" height="24" viewBox="0 0 24 24" fill="none" xmlns="http://www.w3.org/2000/svg">
<path d="M17.248 3H6.74805C6.35036 3.00045 5.9691 3.15864 5.68789 3.43984C5.40668 3.72105 5.2485 4.10231 5.24805 4.5V21C5.24805 21.1339 5.28389 21.2653 5.35185 21.3807C5.4198 21.496 5.51739 21.5911 5.63449 21.656C5.75158 21.7209 5.88392 21.7533 6.01775 21.7497C6.15158 21.7462 6.28204 21.707 6.39557 21.636L11.9974 18.1344L17.6006 21.636C17.7141 21.707 17.8446 21.7462 17.9784 21.7497C18.1122 21.7533 18.2445 21.7209 18.3616 21.656C18.4787 21.5911 18.5763 21.496 18.6443 21.3807C18.7122 21.2653 18.748 21.1339 18.748 21V4.5C18.7476 4.10231 18.5894 3.72105 18.3082 3.43984C18.027 3.15864 17.6457 3.00045 17.248 3Z" fill="#0C60C2"/>
</svg>
