<svg width="24" height="24" viewBox="0 0 24 24" fill="none" xmlns="http://www.w3.org/2000/svg">
<rect width="24" height="24" rx="12" fill="#8F8F8F"/>
<path d="M17.3846 7.69565H15.5185L14.6015 6.2517C14.5523 6.17427 14.4857 6.11079 14.4075 6.06688C14.3294 6.02297 14.2421 6 14.1535 6H9.84576C9.75711 6 9.66984 6.02297 9.59168 6.06688C9.51353 6.11079 9.44691 6.17427 9.39774 6.2517L8.48068 7.69565H6.61538C6.18711 7.69617 5.77651 7.87498 5.47368 8.19287C5.17084 8.51075 5.00049 8.94175 5 9.3913V17.3043C5.00049 17.7539 5.17084 18.1849 5.47368 18.5028C5.77651 18.8207 6.18711 18.9995 6.61538 19H17.3846C17.8129 18.9995 18.2235 18.8207 18.5263 18.5028C18.8292 18.1849 18.9995 17.7539 19 17.3043V9.3913C18.9995 8.94175 18.8292 8.51075 18.5263 8.19287C18.2235 7.87498 17.8129 7.69617 17.3846 7.69565ZM14.4231 13.0652C14.4231 13.5683 14.281 14.06 14.0147 14.4783C13.7485 14.8966 13.37 15.2226 12.9273 15.4151C12.4845 15.6076 11.9973 15.658 11.5273 15.5598C11.0573 15.4617 10.6255 15.2194 10.2866 14.8637C9.94775 14.508 9.71698 14.0548 9.62348 13.5614C9.52999 13.068 9.57797 12.5566 9.76137 12.0919C9.94477 11.6271 10.2553 11.2299 10.6538 10.9504C11.0523 10.6709 11.5208 10.5217 12 10.5217C12.6424 10.5225 13.2583 10.7907 13.7126 11.2675C14.1668 11.7444 14.4224 12.3909 14.4231 13.0652Z" fill="white"/>
</svg>
