<svg width="90" height="90" viewBox="0 0 90 90" fill="none" xmlns="http://www.w3.org/2000/svg">
<g clip-path="url(#clip0_7056_218533)">
<path fill-rule="evenodd" clip-rule="evenodd" d="M45 90C69.8528 90 90 69.8528 90 45C90 20.1472 69.8528 0 45 0C20.1472 0 0 20.1472 0 45C0 69.8528 20.1472 90 45 90Z" fill="white"/>
<mask id="path-2-inside-1_7056_218533" fill="white">
<path d="M45 3.12159C45 1.39759 46.3994 -0.0112631 48.1192 0.108221C56.2788 0.675092 64.1513 3.4576 70.8752 8.18327C78.4527 13.5088 84.2024 21.0427 87.3397 29.7568C90.4769 38.4709 90.849 47.9409 88.4051 56.8743C85.9612 65.8077 80.8203 73.7695 73.6841 79.6731C66.5478 85.5767 57.7638 89.1346 48.5307 89.8613C39.2975 90.5879 30.0651 88.448 22.0931 83.7334C14.1212 79.0188 7.79817 71.9593 3.98685 63.5181C0.604824 56.0278 -0.653237 47.7733 0.318877 39.6521C0.523778 37.9403 2.1699 36.8297 3.86336 37.1528C5.55682 37.4758 6.65449 39.1104 6.46873 40.8243C5.72573 47.6797 6.82378 54.6301 9.67688 60.949C12.9594 68.219 18.4052 74.2992 25.2712 78.3596C32.1371 82.4201 40.0887 84.2632 48.0408 83.6374C55.993 83.0115 63.5584 79.9472 69.7046 74.8627C75.8507 69.7781 80.2784 62.9209 82.3832 55.2269C84.4881 47.5329 84.1676 39.3768 81.4656 31.8716C78.7636 24.3664 73.8116 17.8778 67.2854 13.2911C61.613 9.30449 54.9915 6.92353 48.1183 6.36879C46.3999 6.23009 45 4.84559 45 3.12159Z"/>
</mask>
<path d="M45 3.12159C45 1.39759 46.3994 -0.0112631 48.1192 0.108221C56.2788 0.675092 64.1513 3.4576 70.8752 8.18327C78.4527 13.5088 84.2024 21.0427 87.3397 29.7568C90.4769 38.4709 90.849 47.9409 88.4051 56.8743C85.9612 65.8077 80.8203 73.7695 73.6841 79.6731C66.5478 85.5767 57.7638 89.1346 48.5307 89.8613C39.2975 90.5879 30.0651 88.448 22.0931 83.7334C14.1212 79.0188 7.79817 71.9593 3.98685 63.5181C0.604824 56.0278 -0.653237 47.7733 0.318877 39.6521C0.523778 37.9403 2.1699 36.8297 3.86336 37.1528C5.55682 37.4758 6.65449 39.1104 6.46873 40.8243C5.72573 47.6797 6.82378 54.6301 9.67688 60.949C12.9594 68.219 18.4052 74.2992 25.2712 78.3596C32.1371 82.4201 40.0887 84.2632 48.0408 83.6374C55.993 83.0115 63.5584 79.9472 69.7046 74.8627C75.8507 69.7781 80.2784 62.9209 82.3832 55.2269C84.4881 47.5329 84.1676 39.3768 81.4656 31.8716C78.7636 24.3664 73.8116 17.8778 67.2854 13.2911C61.613 9.30449 54.9915 6.92353 48.1183 6.36879C46.3999 6.23009 45 4.84559 45 3.12159Z" stroke="#0C60C2" stroke-width="16" mask="url(#path-2-inside-1_7056_218533)"/>
<path d="M35.176 32.544C35.7947 32.544 36.296 32.3307 36.68 31.904C37.064 31.4773 37.256 30.9173 37.256 30.224C37.256 29.776 37.1707 29.3813 37 29.04C36.8293 28.688 36.584 28.416 36.264 28.224C35.9547 28.032 35.592 27.936 35.176 27.936H32.04V32.544H35.176ZM37.352 38.176L34.424 34.192H32.04V38.176H30.12V26.272H35.48C36.1947 26.272 36.8293 26.4427 37.384 26.784C37.9493 27.1147 38.3867 27.5787 38.696 28.176C39.016 28.7627 39.176 29.4293 39.176 30.176C39.176 30.72 39.0853 31.2267 38.904 31.696C38.7227 32.1547 38.44 32.576 38.056 32.96C37.6827 33.3333 37.1973 33.648 36.6 33.904L39.736 38.176H37.352ZM49.892 27.936H43.348V31.216H49.06V32.88H43.348V36.512H49.892V38.176H41.428V26.272H49.892V27.936ZM59.9754 27.936H56.5354V38.176H54.6154V27.936H51.1434V26.272H59.9754V27.936Z" fill="#181818"/>
<path d="M34.0112 62.824C34.3752 62.824 34.6972 62.754 34.9772 62.614C35.2572 62.474 35.4765 62.2733 35.6352 62.012C35.7939 61.7507 35.8732 61.4567 35.8732 61.13C35.8732 60.794 35.7939 60.4953 35.6352 60.234C35.4765 59.9633 35.2572 59.7533 34.9772 59.604C34.6972 59.4547 34.3752 59.38 34.0112 59.38C33.6565 59.38 33.3345 59.4547 33.0452 59.604C32.7652 59.7533 32.5459 59.9587 32.3872 60.22C32.2285 60.4813 32.1492 60.7847 32.1492 61.13C32.1492 61.4567 32.2285 61.7507 32.3872 62.012C32.5459 62.2733 32.7652 62.474 33.0452 62.614C33.3345 62.754 33.6565 62.824 34.0112 62.824ZM32.4292 56.496C32.4292 56.9253 32.5739 57.2753 32.8632 57.546C33.1619 57.8167 33.5445 57.952 34.0112 57.952C34.4779 57.952 34.8559 57.8167 35.1452 57.546C35.4439 57.2753 35.5932 56.9253 35.5932 56.496C35.5932 56.076 35.4439 55.7353 35.1452 55.474C34.8559 55.2127 34.4779 55.082 34.0112 55.082C33.5445 55.082 33.1619 55.2127 32.8632 55.474C32.5739 55.7353 32.4292 56.076 32.4292 56.496ZM35.8592 58.68C36.3539 58.96 36.7599 59.3333 37.0772 59.8C37.3945 60.2667 37.5532 60.724 37.5532 61.172C37.5532 61.7693 37.3992 62.3013 37.0912 62.768C36.7925 63.2253 36.3772 63.5847 35.8452 63.846C35.3132 64.1073 34.7019 64.238 34.0112 64.238C33.3299 64.238 32.7185 64.1073 32.1772 63.846C31.6359 63.5847 31.2159 63.2253 30.9172 62.768C30.6185 62.3013 30.4692 61.7693 30.4692 61.172C30.4692 60.724 30.6279 60.2667 30.9452 59.8C31.2625 59.3333 31.6685 58.96 32.1632 58.68C31.7525 58.4 31.4119 58.0547 31.1412 57.644C30.8799 57.2333 30.7492 56.8413 30.7492 56.468C30.7492 55.9267 30.8892 55.446 31.1692 55.026C31.4492 54.5967 31.8319 54.2653 32.3172 54.032C32.8119 53.7893 33.3765 53.668 34.0112 53.668C34.6459 53.668 35.2105 53.7893 35.7052 54.032C36.1999 54.2653 36.5825 54.5967 36.8532 55.026C37.1332 55.446 37.2732 55.9267 37.2732 56.468C37.2732 56.8507 37.1379 57.2473 36.8672 57.658C36.6059 58.0687 36.2699 58.4093 35.8592 58.68ZM39.5947 64.112L43.5567 55.236H45.4047L41.4427 64.112H39.5947ZM45.4047 55.236L38.9787 55.25V53.78H45.2647L45.4047 55.236Z" fill="#0C60C2"/>
<path d="M56.2027 53.836H57.5187L51.1207 64.028H49.8187L56.2027 53.836ZM50.1827 59.212C49.6974 59.212 49.2447 59.0907 48.8247 58.848C48.414 58.596 48.0874 58.2553 47.8447 57.826C47.602 57.3967 47.4807 56.9347 47.4807 56.44C47.4807 55.9453 47.602 55.488 47.8447 55.068C48.0874 54.6387 48.414 54.298 48.8247 54.046C49.2447 53.794 49.6974 53.668 50.1827 53.668C50.6774 53.668 51.13 53.794 51.5407 54.046C51.9514 54.298 52.2734 54.6387 52.5067 55.068C52.7494 55.488 52.8707 55.9453 52.8707 56.44C52.8707 56.9347 52.7494 57.3967 52.5067 57.826C52.2734 58.246 51.9514 58.582 51.5407 58.834C51.13 59.086 50.6774 59.212 50.1827 59.212ZM50.1827 58.022C50.4534 58.022 50.7007 57.952 50.9247 57.812C51.158 57.672 51.34 57.4807 51.4707 57.238C51.6107 56.9953 51.6807 56.7293 51.6807 56.44C51.6807 56.1507 51.6107 55.8847 51.4707 55.642C51.34 55.3993 51.1627 55.208 50.9387 55.068C50.7147 54.928 50.4674 54.858 50.1967 54.858C49.926 54.858 49.674 54.9327 49.4407 55.082C49.2167 55.222 49.0347 55.4133 48.8947 55.656C48.764 55.8893 48.6987 56.1507 48.6987 56.44C48.6987 56.7293 48.764 56.9953 48.8947 57.238C49.0347 57.4807 49.2167 57.672 49.4407 57.812C49.674 57.952 49.9214 58.022 50.1827 58.022ZM57.0427 64.14C56.5574 64.14 56.1047 64.014 55.6847 63.762C55.274 63.51 54.9474 63.1693 54.7047 62.74C54.462 62.3107 54.3407 61.8487 54.3407 61.354C54.3407 60.8593 54.462 60.402 54.7047 59.982C54.9474 59.5527 55.274 59.2167 55.6847 58.974C56.1047 58.722 56.5574 58.596 57.0427 58.596C57.5374 58.596 57.99 58.722 58.4007 58.974C58.8114 59.2167 59.1334 59.5527 59.3667 59.982C59.6094 60.402 59.7307 60.864 59.7307 61.368C59.7307 61.8533 59.6094 62.3107 59.3667 62.74C59.1334 63.1693 58.8114 63.51 58.4007 63.762C57.99 64.014 57.5374 64.14 57.0427 64.14ZM57.0427 62.95C57.3134 62.95 57.5607 62.88 57.7847 62.74C58.018 62.6 58.2 62.4087 58.3307 62.166C58.4707 61.9233 58.5407 61.6573 58.5407 61.368C58.5407 61.0787 58.4707 60.8127 58.3307 60.57C58.2 60.3273 58.018 60.136 57.7847 59.996C57.5607 59.856 57.318 59.786 57.0567 59.786C56.786 59.786 56.534 59.856 56.3007 59.996C56.0767 60.136 55.8947 60.3273 55.7547 60.57C55.6147 60.8033 55.5447 61.0647 55.5447 61.354C55.5447 61.6527 55.6147 61.9233 55.7547 62.166C55.8947 62.4087 56.0767 62.6 56.3007 62.74C56.534 62.88 56.7814 62.95 57.0427 62.95Z" fill="#181818"/>
</g>
<defs>
<clipPath id="clip0_7056_218533">
<rect width="90" height="90" fill="white"/>
</clipPath>
</defs>
</svg>
