<svg width="34" height="34" viewBox="0 0 34 34" fill="none" xmlns="http://www.w3.org/2000/svg">
<g id="CheckCircle">
<path id="Vector" d="M16.9984 3.65625C14.3595 3.65625 11.78 4.43875 9.58588 5.9048C7.39179 7.37085 5.6817 9.4546 4.67186 11.8926C3.66203 14.3305 3.39781 17.0132 3.91262 19.6013C4.42743 22.1894 5.69814 24.5667 7.56407 26.4326C9.43 28.2986 11.8073 29.5693 14.3954 30.0841C16.9836 30.5989 19.6662 30.3347 22.1042 29.3249C24.5421 28.315 26.6259 26.6049 28.0919 24.4108C29.558 22.2167 30.3405 19.6372 30.3405 16.9984C30.3364 13.4611 28.9294 10.0698 26.4281 7.56858C23.9269 5.06733 20.5357 3.66034 16.9984 3.65625ZM23.3527 14.6621L15.8257 21.8463C15.6343 22.0284 15.3803 22.1299 15.1161 22.1299C14.852 22.1299 14.5979 22.0284 14.4065 21.8463L10.644 18.2542C10.4475 18.0659 10.3337 17.8073 10.3276 17.5351C10.3216 17.263 10.4238 16.9996 10.6119 16.8028C10.7999 16.606 11.0584 16.4919 11.3305 16.4855C11.6027 16.4791 11.8662 16.581 12.0632 16.7688L15.1161 19.6844L21.9335 13.1767C22.1305 12.9889 22.3941 12.887 22.6662 12.8934C22.9383 12.8998 23.1968 13.0139 23.3848 13.2107C23.5729 13.4075 23.6751 13.6709 23.6691 13.943C23.6631 14.2152 23.5493 14.4738 23.3527 14.6621Z" fill="#27AE60"/>
</g>
</svg>
