<svg width="100" height="100" viewBox="0 0 100 100" fill="none" xmlns="http://www.w3.org/2000/svg">
<path d="M79.89 57.6303L84.4748 54.31C85.4975 53.5695 86.1841 52.453 86.3837 51.2063C86.5833 49.9595 86.2795 48.6845 85.539 47.6618L85.5344 47.6553C84.7927 46.6306 83.6744 45.9425 82.4254 45.7422C81.1765 45.5419 79.8991 45.8459 78.8742 46.5873L82.7385 43.7909C83.2461 43.4235 83.6763 42.9598 84.0047 42.4262C84.3331 41.8926 84.5532 41.2996 84.6524 40.6809C84.7515 40.0623 84.7279 39.4301 84.5828 38.8206C84.4377 38.2111 84.1739 37.6361 83.8066 37.1286C83.0648 36.1034 81.9461 35.415 80.6966 35.2146C79.4471 35.0143 78.1693 35.3185 77.1441 36.0604L73.2379 38.8877C73.751 38.5164 74.186 38.0475 74.518 37.508C74.8499 36.9686 75.0724 36.3689 75.1726 35.7435C75.2728 35.118 75.2488 34.4789 75.102 33.8627C74.9552 33.2465 74.6884 32.6653 74.317 32.1522C73.5722 31.1225 72.4509 30.4284 71.1971 30.2209C69.9433 30.0135 68.6583 30.3094 67.6215 31.0444C58.1799 37.7377 40.5658 50.7514 40.5658 50.7514L15.5625 69.8866C14.5108 72.7442 14.1781 75.8166 14.5936 78.8331C15.0091 81.8496 16.1602 84.7176 17.9453 87.1844C20.0936 90.1529 23.0722 92.4193 26.5061 93.6983C29.9399 94.9773 33.6754 95.2117 37.2422 94.3719C42.9975 93.0279 48.4859 90.7259 53.4781 87.5623C58.9094 84.1067 64.162 80.378 69.2156 76.3905L84.7838 64.1053C85.6175 63.4476 86.1602 62.4893 86.2955 61.4361C86.4309 60.3829 86.1481 59.3185 85.5078 58.4714C84.8674 57.6242 83.9206 57.0618 82.8704 56.9047C81.8202 56.7475 80.7502 57.0083 79.89 57.6309V57.6303Z" fill="#F4AE7F"/>
<path d="M81.5762 35.4395L70.7852 43.4004L69.457 41.5625L73.7461 38.457C73.586 38.6103 73.4157 38.7526 73.2363 38.8828L77.1426 36.0547C77.7746 35.5966 78.5095 35.3009 79.2826 35.1936C80.0557 35.0863 80.8433 35.1708 81.5762 35.4395ZM83.4082 46.0039L73.293 53.4649L71.9648 51.6289L79.3789 46.2617L79.3809 46.2598C79.9926 45.9253 80.6703 45.7291 81.3661 45.6849C82.062 45.6407 82.759 45.7496 83.4082 46.0039Z" fill="#F4AE7F"/>
<path d="M75.8753 54.1523L69.4456 60.1504L61.3714 67.6797C56.6639 72.0702 51.7371 76.2194 46.6097 80.1113C44.2594 81.8936 41.7614 83.4722 39.1429 84.8301C36.5236 86.1874 33.7969 87.3267 30.9905 88.2363C26.8942 89.5683 22.4618 89.4316 18.4554 87.8496C18.2796 87.6309 18.1097 87.4075 17.9456 87.1797C16.1603 84.7131 15.0091 81.8453 14.5936 78.8289C14.1781 75.8125 14.5109 72.7402 15.5628 69.8828L40.5648 50.748C40.5648 50.748 46.2171 46.5723 52.8323 41.7344L62.7405 54.7285L64.8304 52.9355L70.4632 48.1035C71.2691 47.412 72.314 47.0639 73.3736 47.1339C74.4333 47.2038 75.4233 47.6862 76.1314 48.4776C76.8395 49.269 77.2093 50.3064 77.1614 51.3672C77.1135 52.4281 76.6518 53.4279 75.8753 54.1523Z" fill="#D4976E"/>
<path d="M60.5684 27.6074L49.4297 37.1621L53.666 42.7168L53.3184 43.0137L47.668 35.2871L62.1328 22.8828C62.3264 23.7381 62.283 24.6301 62.0073 25.4626C61.7317 26.2951 61.2342 27.0367 60.5684 27.6074Z" fill="#F6BB92"/>
<path d="M84.1664 57.3301L73.8988 64.7637C73.6563 64.939 73.3543 65.0114 73.0587 64.9648C72.7631 64.9183 72.4979 64.7566 72.3211 64.5152C72.2327 64.3948 72.169 64.258 72.1337 64.1128C72.0983 63.9676 72.0921 63.8169 72.1153 63.6693C72.1385 63.5217 72.1906 63.3801 72.2687 63.2527C72.3469 63.1254 72.4494 63.0147 72.5705 62.9271L79.889 57.6308C80.5028 57.1863 81.2288 56.9225 81.9847 56.8694C82.7407 56.8162 83.4965 56.9758 84.1664 57.3301Z" fill="#D4976E"/>
<path d="M55.0787 44.8902L70.442 31.7131C70.9176 31.3052 71.3083 30.8077 71.5916 30.2488C71.8749 29.6899 72.0454 29.0808 72.0933 28.456C72.1412 27.8313 72.0655 27.2032 71.8707 26.6077C71.6758 26.0122 71.3655 25.4609 70.9576 24.9854C70.5497 24.5098 70.0521 24.1192 69.4933 23.8359C68.9344 23.5526 68.3252 23.3821 67.7005 23.3343C67.0758 23.2864 66.4477 23.362 65.8522 23.5569C65.2567 23.7518 64.7055 24.062 64.2299 24.4699L49.4297 37.1643L55.0787 44.8902Z" fill="#F6BB92"/>
<path d="M70.4407 31.7129L69.7121 32.3379L57.0813 43.0801C56.9532 43.19 56.8046 43.2736 56.6442 43.3261C56.4838 43.3786 56.3146 43.399 56.1463 43.3861C55.978 43.3732 55.8139 43.3273 55.6633 43.251C55.5127 43.1747 55.3787 43.0695 55.2688 42.9414C55.1589 42.8133 55.0753 42.6648 55.0228 42.5044C54.9703 42.3439 54.9499 42.1747 54.9627 42.0064C54.9756 41.8381 55.0215 41.674 55.0978 41.5234C55.1741 41.3729 55.2793 41.2388 55.4074 41.1289L71.9836 27.0156C72.1801 27.8648 72.1402 28.7516 71.8682 29.5798C71.5962 30.4079 71.1024 31.1456 70.4407 31.7129ZM71.9641 34.127C71.9504 34.1387 71.9387 34.1504 71.925 34.1621L56.8371 47.1035L55.0774 44.8887L66.8215 34.8184C67.52 34.2181 68.3776 33.8333 69.2903 33.7106C70.2031 33.5879 71.1319 33.7325 71.9641 34.127Z" fill="#F6BB92"/>
<path d="M61.0223 52.3591C61.0223 52.3591 65.9695 48.0702 72.9715 42.0616C74.9672 40.3493 75.2648 37.3308 73.5529 35.3347L73.5477 35.3286C72.724 34.3684 71.5527 33.7746 70.2913 33.678C69.0299 33.5814 67.7818 33.9898 66.8215 34.8134L55.0781 44.8851L61.0223 52.3591Z" fill="#F6BB92"/>
<path d="M37.9253 4.37303C37.8337 4.1894 37.7068 4.0256 37.552 3.891C37.3971 3.75639 37.2172 3.6536 37.0226 3.58851C36.828 3.52342 36.6225 3.4973 36.4178 3.51163C36.2131 3.52596 36.0132 3.58048 35.8296 3.67206C35.6459 3.76364 35.4821 3.89049 35.3475 4.04537C35.2129 4.20025 35.1101 4.38013 35.045 4.57473C34.98 4.76934 34.9538 4.97485 34.9682 5.17956C34.9825 5.38426 35.037 5.58413 35.1286 5.76776L37.561 10.6455C37.7459 11.0164 38.0706 11.2986 38.4636 11.43C38.6582 11.4951 38.8637 11.5213 39.0684 11.507C39.2731 11.4926 39.473 11.4381 39.6566 11.3466C39.8403 11.255 40.0041 11.1282 40.1387 10.9733C40.2733 10.8184 40.3761 10.6386 40.4412 10.444C40.5063 10.2494 40.5324 10.0439 40.5181 9.83916C40.5038 9.63447 40.4493 9.4346 40.3577 9.25096L37.9253 4.37303ZM32.0997 18.0912L26.6598 17.7586C26.2462 17.7333 25.8394 17.8734 25.5291 18.148C25.2187 18.4226 25.0301 18.8093 25.0049 19.2229C24.9796 19.6366 25.1197 20.0433 25.3943 20.3537C25.6689 20.6641 26.0556 20.8526 26.4692 20.8779L31.9096 21.2099C31.9423 21.2119 31.9743 21.2129 32.0073 21.2129C32.4133 21.2124 32.8031 21.054 33.0943 20.7711C33.3855 20.4883 33.5552 20.1032 33.5674 19.6974C33.5796 19.2916 33.4334 18.897 33.1598 18.5971C32.8861 18.2972 32.5065 18.1157 32.1013 18.0908L32.0997 18.0912ZM54.7098 5.27167C54.5387 5.15841 54.347 5.07998 54.1455 5.04084C53.9441 5.0017 53.7369 5.00263 53.5358 5.04356C53.3347 5.0845 53.1437 5.16464 52.9736 5.27942C52.8035 5.39419 52.6576 5.54135 52.5444 5.71249L49.5366 10.258C49.4234 10.4291 49.3449 10.6209 49.3058 10.8223C49.2667 11.0238 49.2676 11.2309 49.3085 11.432C49.3495 11.6331 49.4296 11.8241 49.5444 11.9942C49.6591 12.1643 49.8063 12.3102 49.9774 12.4234C50.1486 12.5367 50.3403 12.6151 50.5417 12.6542C50.7432 12.6934 50.9504 12.6924 51.1514 12.6515C51.3525 12.6106 51.5436 12.5304 51.7137 12.4156C51.8838 12.3009 52.0296 12.1537 52.1428 11.9826L55.1507 7.4371C55.2639 7.26597 55.3423 7.07421 55.3815 6.87278C55.4206 6.67134 55.4197 6.46416 55.3788 6.26308C55.3378 6.06199 55.2577 5.87094 55.1429 5.70084C55.0281 5.53073 54.881 5.3849 54.7098 5.27167ZM78.5626 86.0037C78.3771 85.6337 78.0525 85.3524 77.6598 85.2215C77.2672 85.0906 76.8387 85.1209 76.4683 85.3056C76.098 85.4903 75.816 85.8144 75.6844 86.2068C75.5527 86.5991 75.5821 87.0277 75.7661 87.3984L78.1985 92.2764C78.2901 92.46 78.4169 92.6239 78.5718 92.7585C78.7267 92.8932 78.9066 92.996 79.1013 93.0611C79.2959 93.1262 79.5015 93.1524 79.7062 93.138C79.9109 93.1237 80.1108 93.0692 80.2945 92.9776C80.4782 92.886 80.642 92.7592 80.7767 92.6043C80.9113 92.4494 81.0141 92.2695 81.0792 92.0749C81.1444 91.8802 81.1705 91.6747 81.1562 91.47C81.1419 91.2652 81.0874 91.0653 80.9958 90.8816L78.5626 86.0037ZM89.6553 75.7715L84.2149 75.4394C84.0096 75.426 83.8037 75.4533 83.6089 75.5196C83.4142 75.586 83.2344 75.6902 83.0801 75.8262C82.9257 75.9622 82.7997 76.1273 82.7093 76.3122C82.6189 76.497 82.5659 76.6978 82.5533 76.9032C82.5408 77.1086 82.5689 77.3144 82.6361 77.5089C82.7033 77.7033 82.8082 77.8826 82.9449 78.0364C83.0815 78.1902 83.2472 78.3155 83.4324 78.4051C83.6176 78.4947 83.8187 78.5469 84.0241 78.5586L89.4647 78.8906C89.4973 78.8924 89.5294 78.8934 89.5624 78.8934C89.9683 78.8929 90.3582 78.7344 90.6493 78.4515C90.9405 78.1686 91.1101 77.7835 91.1223 77.3777C91.1345 76.972 90.9883 76.5774 90.7146 76.2775C90.4409 75.9777 90.0613 75.7961 89.6561 75.7713L89.6553 75.7715ZM66.1466 84.226C65.9754 84.1127 65.7837 84.0343 65.5822 83.9951C65.3808 83.956 65.1736 83.9569 64.9725 83.9979C64.7715 84.0388 64.5804 84.1189 64.4103 84.2337C64.2402 84.3485 64.0944 84.4957 63.9811 84.6668L60.9733 89.2123C60.7446 89.5579 60.6626 89.9802 60.7452 90.3862C60.8279 90.7923 61.0685 91.1489 61.414 91.3776C61.7596 91.6063 62.1819 91.6884 62.588 91.6057C62.9941 91.5231 63.3507 91.2825 63.5794 90.9369L66.5872 86.3914C66.7004 86.2203 66.7789 86.0285 66.818 85.8271C66.8572 85.6257 66.8563 85.4185 66.8154 85.2174C66.7745 85.0163 66.6943 84.8253 66.5796 84.6552C66.4648 84.4851 66.3177 84.3392 66.1466 84.226Z" fill="#A1DCFF"/>
<path d="M83.4086 46.0039L73.2934 53.4649L71.9652 51.6289L79.3793 46.2617L79.3812 46.2598C79.993 45.9253 80.6707 45.7291 81.3665 45.6849C82.0624 45.6407 82.7594 45.7496 83.4086 46.0039ZM81.5766 35.4395L72.5566 41.4955L71.9316 40.0049L73.7459 38.457C73.5858 38.6103 73.4155 38.7526 73.2361 38.8828L77.1424 36.0547C77.7744 35.5966 78.5093 35.3009 79.2824 35.1936C80.0555 35.0863 80.8431 35.1708 81.576 35.4395H81.5766Z" fill="#D4976E"/>
<path d="M49.4286 37.1637L60.5679 27.6094C61.5388 26.7766 62.1392 25.5923 62.2369 24.3169C62.3346 23.0415 61.9217 21.7795 61.089 20.8086C60.2618 19.8437 59.0872 19.2444 57.8205 19.141C56.5539 19.0376 55.2976 19.4385 54.3249 20.2564C45.4679 27.7053 28.9858 42.126 28.9858 42.126L30.4946 37.5947C31.4165 34.8265 31.406 31.8324 30.4648 29.0707C30.0882 27.9658 29.3579 27.0159 28.3869 26.368C27.4159 25.7202 26.2584 25.4105 25.0937 25.4869C23.9689 25.5607 22.8968 25.9906 22.0328 26.7145C21.1687 27.4383 20.5575 28.4185 20.2878 29.5129L19.388 33.1652C18.4362 37.028 16.6755 40.6448 14.2224 43.7768C10.0966 49.0446 7.29394 55.2248 6.04932 61.7992L5.64581 63.2566C4.83336 66.1912 4.75507 69.2805 5.41784 72.2524C6.0806 75.2243 7.46408 77.9876 9.44639 80.2988C11.8321 83.0803 14.9875 85.0936 18.5152 86.0852C22.0429 87.0769 25.7851 87.0025 29.2706 85.8715C34.8954 84.0578 40.1752 81.3115 44.8896 77.7475C50.0174 73.8554 54.9447 69.7058 59.6524 65.3148L74.155 51.7885C74.9208 51.0742 75.3809 50.0916 75.4391 49.046C75.4974 48.0004 75.1492 46.9728 74.4675 46.1779C73.7667 45.361 72.7701 44.8559 71.697 44.7737C70.6238 44.6914 69.5619 45.0388 68.7448 45.7395L61.0214 52.3637L49.4286 37.1637Z" fill="#F6BB92"/>
<path d="M60.5693 27.6074L50.5023 36.2428C50.3665 36.3593 50.2079 36.4461 50.0365 36.4977C49.8652 36.5494 49.685 36.5646 49.5074 36.5426C49.3299 36.5205 49.1589 36.4616 49.0054 36.3696C48.8519 36.2776 48.7194 36.1546 48.6162 36.0084C48.4317 35.7471 48.3513 35.4264 48.3906 35.109C48.43 34.7916 48.5863 34.5003 48.8291 34.292L62.1338 22.8828C62.3274 23.7381 62.284 24.6301 62.0083 25.4626C61.7326 26.2951 61.2351 27.0367 60.5693 27.6074ZM70.4424 31.7109L69.7139 32.3359L57.083 43.0781C56.9549 43.188 56.8064 43.2716 56.6459 43.3241C56.4855 43.3766 56.3163 43.397 56.148 43.3842C55.9797 43.3713 55.8156 43.3254 55.665 43.2491C55.5145 43.1728 55.3804 43.0676 55.2705 42.9395C55.1606 42.8113 55.077 42.6628 55.0245 42.5024C54.972 42.342 54.9516 42.1728 54.9644 42.0045C54.9773 41.8362 55.0232 41.6721 55.0995 41.5215C55.1758 41.3709 55.281 41.2369 55.4092 41.127L71.9853 27.0137C72.1818 27.8629 72.1419 28.7497 71.8699 29.5778C71.5979 30.4059 71.1042 31.1437 70.4424 31.7109ZM61.4801 48.6041L74.5674 37.3105C74.7508 38.0645 74.7472 38.8519 74.5569 39.6042C74.3666 40.3565 73.9954 41.0508 73.4756 41.627L63.1699 50.558C63.0357 50.6743 62.879 50.7617 62.7096 50.8147C62.5401 50.8678 62.3616 50.8853 62.185 50.8662C62.0085 50.8471 61.8378 50.7918 61.6836 50.7037C61.5294 50.6157 61.395 50.4968 61.2889 50.3545C61.0934 50.0927 61.0045 49.7665 61.04 49.4417C61.0754 49.1169 61.2327 48.8176 61.4801 48.6041Z" fill="#E0AA85"/>
</svg>
