<svg width="24" height="24" viewBox="0 0 24 24" fill="none" xmlns="http://www.w3.org/2000/svg">
<path d="M13.061 11.9997L19.2806 5.77997C19.4211 5.63929 19.5 5.44858 19.5 5.24975C19.4999 5.05092 19.4209 4.86026 19.2803 4.71967C19.1397 4.57907 18.949 4.50006 18.7502 4.5C18.5514 4.49994 18.3607 4.57883 18.22 4.71933L12.0003 10.939L5.78064 4.71933C5.63996 4.57883 5.44924 4.49994 5.25041 4.5C5.05159 4.50006 4.86092 4.57907 4.72033 4.71967C4.57974 4.86026 4.50073 5.05092 4.50067 5.24975C4.5006 5.44858 4.57949 5.63929 4.72 5.77997L10.9397 11.9997L4.72 18.2193C4.65028 18.289 4.59497 18.3716 4.55722 18.4627C4.51948 18.5537 4.50003 18.6512 4.5 18.7498C4.49997 18.8483 4.51935 18.9458 4.55704 19.0369C4.59474 19.1279 4.64999 19.2106 4.71967 19.2803C4.78934 19.35 4.87205 19.4052 4.96309 19.4429C5.05412 19.4806 5.15169 19.5 5.25022 19.5C5.34875 19.4999 5.44631 19.4805 5.53732 19.4427C5.62833 19.405 5.71101 19.3497 5.78064 19.28L12.0003 13.0603L18.22 19.28C18.3607 19.4205 18.5514 19.4994 18.7502 19.4993C18.949 19.4992 19.1397 19.4202 19.2803 19.2796C19.4209 19.139 19.4999 18.9484 19.5 18.7496C19.5 18.5507 19.4211 18.36 19.2806 18.2193L13.061 11.9997Z" fill="#222059"/>
</svg>
