<svg width="24" height="24" viewBox="0 0 24 24" fill="none" xmlns="http://www.w3.org/2000/svg">
<rect width="24" height="24" rx="12" fill="#009DAD"/>
<path d="M16.1466 17.8333H7.8533C7.6221 17.8239 7.39504 17.769 7.1851 17.6717C6.97516 17.5744 6.78646 17.4367 6.6298 17.2664C6.47314 17.0961 6.3516 16.8966 6.27212 16.6793C6.19264 16.462 6.1568 16.2312 6.16663 16V14C6.16663 13.8674 6.21931 13.7402 6.31308 13.6464C6.40684 13.5527 6.53402 13.5 6.66663 13.5C6.79924 13.5 6.92641 13.5527 7.02018 13.6464C7.11395 13.7402 7.16663 13.8674 7.16663 14V16C7.14942 16.198 7.20906 16.3949 7.33318 16.5501C7.45731 16.7052 7.63639 16.8067 7.8333 16.8333H16.1466C16.3435 16.8067 16.5226 16.7052 16.6467 16.5501C16.7709 16.3949 16.8305 16.198 16.8133 16V14C16.8133 13.8674 16.866 13.7402 16.9597 13.6464C17.0535 13.5527 17.1807 13.5 17.3133 13.5C17.4459 13.5 17.5731 13.5527 17.6669 13.6464C17.7606 13.7402 17.8133 13.8674 17.8133 14V16C17.8333 16.4636 17.6693 16.9163 17.3572 17.2596C17.0451 17.603 16.61 17.8092 16.1466 17.8333Z" fill="white"/>
<path d="M11.9999 14.4999C11.9342 14.5002 11.8691 14.4874 11.8084 14.4622C11.7478 14.437 11.6927 14.4 11.6466 14.3532L8.9799 11.6866C8.89158 11.5918 8.8435 11.4664 8.84578 11.3369C8.84807 11.2073 8.90054 11.0838 8.99215 10.9922C9.08376 10.9005 9.20735 10.8481 9.33688 10.8458C9.46642 10.8435 9.59178 10.8916 9.68656 10.9799L11.9999 13.2932L14.3132 10.9799C14.408 10.8916 14.5334 10.8435 14.6629 10.8458C14.7924 10.8481 14.916 10.9005 15.0076 10.9922C15.0993 11.0838 15.1517 11.2073 15.154 11.3369C15.1563 11.4664 15.1082 11.5918 15.0199 11.6866L12.3532 14.3532C12.3071 14.4 12.252 14.437 12.1914 14.4622C12.1307 14.4874 12.0656 14.5002 11.9999 14.4999Z" fill="white"/>
<path d="M12 14.4998C11.8679 14.4981 11.7418 14.4449 11.6484 14.3515C11.555 14.2581 11.5017 14.1319 11.5 13.9998V6.6665C11.5 6.5339 11.5527 6.40672 11.6464 6.31295C11.7402 6.21918 11.8674 6.1665 12 6.1665C12.1326 6.1665 12.2598 6.21918 12.3536 6.31295C12.4473 6.40672 12.5 6.5339 12.5 6.6665V13.9998C12.4983 14.1319 12.445 14.2581 12.3516 14.3515C12.2582 14.4449 12.1321 14.4981 12 14.4998Z" fill="white"/>
</svg>
