<svg width="32" height="32" viewBox="0 0 32 32" fill="none" xmlns="http://www.w3.org/2000/svg">
<path fill-rule="evenodd" clip-rule="evenodd" d="M16.001 22.0548C15.449 22.0548 15.001 21.6068 15.001 21.0548V5.00012C15.001 4.44812 15.449 4.00012 16.001 4.00012C16.553 4.00012 17.001 4.44812 17.001 5.00012V21.0548C17.001 21.6068 16.553 22.0548 16.001 22.0548Z" fill="white"/>
<path fill-rule="evenodd" clip-rule="evenodd" d="M16.0014 22.0548C15.7361 22.0548 15.4801 21.9495 15.2934 21.7601L11.4054 17.8575C11.0161 17.4655 11.0174 16.8321 11.4081 16.4428C11.8001 16.0535 12.4321 16.0535 12.8214 16.4455L16.0014 19.6388L19.1814 16.4455C19.5708 16.0535 20.2028 16.0535 20.5948 16.4428C20.9854 16.8321 20.9868 17.4655 20.5974 17.8575L16.7094 21.7601C16.5228 21.9495 16.2668 22.0548 16.0014 22.0548Z" fill="white"/>
<mask id="mask0_288_2284" style="mask-type:luminance" maskUnits="userSpaceOnUse" x="2" y="10" width="28" height="19">
<path fill-rule="evenodd" clip-rule="evenodd" d="M2.66699 10.3101H29.3334V28.6355H2.66699V10.3101Z" fill="white"/>
</mask>
<g mask="url(#mask0_288_2284)">
<path fill-rule="evenodd" clip-rule="evenodd" d="M23.4337 28.6355H8.58033C5.32033 28.6355 2.66699 25.9835 2.66699 22.7221V16.2088C2.66699 12.9555 5.31366 10.3101 8.56833 10.3101H9.82299C10.375 10.3101 10.823 10.7581 10.823 11.3101C10.823 11.8621 10.375 12.3101 9.82299 12.3101H8.56833C6.41633 12.3101 4.66699 14.0581 4.66699 16.2088V22.7221C4.66699 24.8808 6.42166 26.6355 8.58033 26.6355H23.4337C25.583 26.6355 27.3337 24.8848 27.3337 22.7355V16.2235C27.3337 14.0648 25.5777 12.3101 23.4217 12.3101H22.179C21.627 12.3101 21.179 11.8621 21.179 11.3101C21.179 10.7581 21.627 10.3101 22.179 10.3101H23.4217C26.6817 10.3101 29.3337 12.9635 29.3337 16.2235V22.7355C29.3337 25.9888 26.6857 28.6355 23.4337 28.6355Z" fill="white"/>
</g>
</svg>
