<svg width="12" height="12" viewBox="0 0 12 12" fill="none" xmlns="http://www.w3.org/2000/svg">
<path d="M9.64734 11.9658C9.22042 12.2851 6.48111 10.2612 5.95647 10.2568C5.43183 10.2524 2.66168 12.2297 2.23974 11.9033C1.8178 11.5768 2.80976 8.22379 2.65168 7.70004C2.4936 7.1763 -0.158652 5.02898 0.00748721 4.50796C0.173663 3.98694 3.52603 3.93855 3.95296 3.61927C4.37988 3.30003 5.51087 -0.00440549 6.03555 4.40988e-06C6.56015 0.00445266 7.64005 3.32757 8.06199 3.65401C8.48393 3.98042 11.8352 4.08549 11.9933 4.60924C12.1514 5.13298 9.46641 7.2352 9.30023 7.75622C9.13409 8.27724 10.0743 11.6466 9.64734 11.9658Z" fill="#F7A74A"/>
</svg>
