<svg width="188" height="144" viewBox="0 0 188 144" fill="none" xmlns="http://www.w3.org/2000/svg">
<mask id="path-1-inside-1_6922_79771" fill="white">
<path d="M0 8C0 3.58173 3.58172 0 8 0H180C184.418 0 188 3.58172 188 8V136C188 140.418 184.418 144 180 144H8C3.58172 144 0 140.418 0 136V8Z"/>
</mask>
<path d="M0 8C0 3.58173 3.58172 0 8 0H180C184.418 0 188 3.58172 188 8V136C188 140.418 184.418 144 180 144H8C3.58172 144 0 140.418 0 136V8Z" fill="#F2F2F2"/>
<path d="M-1 8C-1 3.02944 3.02944 -1 8 -1H180C184.971 -1 189 3.02944 189 8H187C187 4.13401 183.866 1 180 1H8C4.13401 1 1 4.13401 1 8H-1ZM188 144H0H188ZM8 144C3.02944 144 -1 139.971 -1 135V8C-1 3.02944 3.02944 -1 8 -1V1C4.13401 1 1 4.13401 1 8V136C1 140.418 4.13401 144 8 144ZM180 -1C184.971 -1 189 3.02944 189 8V135C189 139.971 184.971 144 180 144C183.866 144 187 140.418 187 136V8C187 4.13401 183.866 1 180 1V-1Z" fill="#F2F2F2" mask="url(#path-1-inside-1_6922_79771)"/>
</svg>
