<svg width="14" height="14" viewBox="0 0 14 14" fill="none" xmlns="http://www.w3.org/2000/svg">
<path d="M12.7046 6.25264L4.8313 1.44099C4.69868 1.3599 4.54685 1.3156 4.39144 1.31266C4.23602 1.30972 4.08262 1.34824 3.94703 1.42426C3.81144 1.50027 3.69855 1.61105 3.61998 1.74518C3.54141 1.8793 3.5 2.03194 3.5 2.18739V11.8115C3.50013 11.9669 3.54162 12.1195 3.62022 12.2535C3.69882 12.3876 3.81169 12.4983 3.94724 12.5743C4.08278 12.6503 4.23612 12.6888 4.39149 12.686C4.54686 12.6831 4.69866 12.6389 4.8313 12.5579L12.7046 7.74629C12.8325 7.66808 12.9382 7.55833 13.0115 7.42756C13.0848 7.29679 13.1233 7.14938 13.1233 6.99946C13.1233 6.84954 13.0848 6.70214 13.0115 6.57137C12.9382 6.4406 12.8325 6.33085 12.7046 6.25264Z" fill="#8F8F8F"/>
</svg>
