<svg width="11" height="10" viewBox="0 0 11 10" fill="none" xmlns="http://www.w3.org/2000/svg">
<path d="M8.83948 9.97153C8.46594 10.2376 6.06915 8.55103 5.61011 8.54732C5.15107 8.54365 2.7273 10.1914 2.35812 9.91938C1.98894 9.64734 2.85686 6.85316 2.71855 6.4167C2.58024 5.98025 0.259624 4.19082 0.404989 3.75663C0.550385 3.32245 3.48358 3.28212 3.85711 3.01606C4.23065 2.75003 5.22023 -0.00367125 5.6793 3.6749e-06C6.13831 0.00371055 7.08318 2.77297 7.45236 3.04501C7.82154 3.31702 10.7537 3.40458 10.8921 3.84103C11.0304 4.27748 8.68116 6.02933 8.53577 6.46352C8.3904 6.8977 9.21301 9.70547 8.83948 9.97153Z" fill="#A4A4A4"/>
</svg>
