<svg width="40" height="40" viewBox="0 0 40 40" fill="none" xmlns="http://www.w3.org/2000/svg">
<rect x="0.308594" y="0.308594" width="39.3846" height="39.3846" rx="19.6923" fill="#F2F2F2"/>
<path d="M27.0051 13.8301C26.1029 12.9295 25.0319 12.2159 23.8533 11.7303C22.6747 11.2446 21.4119 10.9965 20.1371 11C20.1143 11 20.0911 11.0001 20.0682 11.0003C18.7821 10.9913 17.5069 11.2368 16.3162 11.7228C15.1254 12.2087 14.0425 12.9254 13.1299 13.8317C12.2173 14.7379 11.493 15.8158 10.9987 17.0031C10.5045 18.1905 10.25 19.4639 10.25 20.75V26C10.2507 26.5966 10.488 27.1685 10.9098 27.5903C11.3316 28.0121 11.9035 28.2494 12.5 28.25H14C14.5965 28.2494 15.1684 28.0121 15.5902 27.5903C16.012 27.1685 16.2493 26.5966 16.25 26V22.25C16.2493 21.6535 16.012 21.0816 15.5902 20.6598C15.1684 20.238 14.5965 20.0007 14 20H11.7833C11.9718 17.9396 12.9275 16.0252 14.4609 14.6361C15.9944 13.2471 17.9937 12.4848 20.0626 12.5003C20.0665 12.5003 20.0699 12.5003 20.0738 12.5003C22.1428 12.4847 24.1421 13.247 25.6756 14.6361C27.2091 16.0251 28.1647 17.9396 28.3532 20H26.1365C25.54 20.0007 24.9681 20.238 24.5463 20.6598C24.1245 21.0816 23.8872 21.6535 23.8865 22.25V26C23.8872 26.5966 24.1245 27.1685 24.5463 27.5903C24.9681 28.0121 25.54 28.2494 26.1365 28.25H27.6365C28.233 28.2494 28.8049 28.0121 29.2267 27.5903C29.6486 27.1685 29.8858 26.5966 29.8865 26V20.75C29.8902 19.463 29.6373 18.1881 29.1426 16.9999C28.6478 15.8118 27.9212 14.7342 27.0051 13.8301Z" fill="#0C60C2"/>
</svg>
