<svg width="32" height="32" viewBox="0 0 32 32" fill="none" xmlns="http://www.w3.org/2000/svg">
<path d="M16.612 2.21347C16.4346 2.07513 16.216 2 15.991 2C15.766 2 15.5474 2.07513 15.37 2.21347L1 13.4185L2.243 14.9905L4 13.6205V25.9995C4.00106 26.5296 4.21211 27.0377 4.58695 27.4125C4.9618 27.7874 5.46989 27.9984 6 27.9995H26C26.5301 27.9984 27.0382 27.7874 27.413 27.4125C27.7879 27.0377 27.9989 26.5296 28 25.9995V13.6295L29.757 14.9995L31 13.4275L16.612 2.21347ZM18 25.9995H14V17.9995H18V25.9995ZM20 25.9995V17.9995C19.9995 17.4692 19.7886 16.9608 19.4136 16.5858C19.0387 16.2109 18.5303 16 18 15.9995H14C13.4697 16 12.9613 16.2109 12.5864 16.5858C12.2114 16.9608 12.0005 17.4692 12 17.9995V25.9995H6V12.0615L16 4.27147L26 12.0715V25.9995H20Z" fill="#A4A4A4"/>
</svg>
