<svg width="64" height="68" viewBox="0 0 64 68" fill="none" xmlns="http://www.w3.org/2000/svg">
<path d="M0 4.00001C0 1.79087 1.79086 0 4 0H60C62.2091 0 64 1.79086 64 4V63.7647C64 65.9738 62.2091 67.7647 60 67.7647H4C1.79086 67.7647 0 65.9738 0 63.7647V4.00001Z" fill="white"/>
<path fill-rule="evenodd" clip-rule="evenodd" d="M24.2016 24.7832C22.7656 24.7832 21.6016 25.9473 21.6016 27.3832V40.3832C21.6016 41.8191 22.7656 42.9832 24.2016 42.9832H39.8016C41.2375 42.9832 42.4016 41.8191 42.4016 40.3832V27.3832C42.4016 25.9473 41.2375 24.7832 39.8016 24.7832H24.2016ZM39.8016 40.3832H24.2016L29.4016 29.9832L33.3016 37.7832L35.9016 32.5832L39.8016 40.3832Z" fill="#F2F2F2"/>
</svg>
