<svg width="18" height="18" viewBox="0 0 18 18" fill="none" xmlns="http://www.w3.org/2000/svg">
<g id="heroicons-outline/light-bulb">
<path id="Vector" d="M9 13.5V9.5625M9 9.5625C9.38846 9.5625 9.76543 9.51332 10.125 9.42078M9 9.5625C8.61154 9.5625 8.23457 9.51332 7.875 9.42078M10.6875 15.0296C10.1409 15.1333 9.57678 15.1875 9 15.1875C8.42322 15.1875 7.85911 15.1333 7.3125 15.0296M10.125 16.8165C9.75528 16.8552 9.37996 16.875 9 16.875C8.62004 16.875 8.24472 16.8552 7.875 16.8165M10.6875 13.5V13.3563C10.6875 12.6191 11.1812 11.9888 11.8188 11.6188C13.4967 10.6453 14.625 8.82943 14.625 6.75C14.625 3.6434 12.1066 1.125 9 1.125C5.8934 1.125 3.375 3.6434 3.375 6.75C3.375 8.82943 4.50334 10.6453 6.18116 11.6188C6.8188 11.9888 7.3125 12.6191 7.3125 13.3563V13.5" stroke="#FA841A" stroke-linecap="round" stroke-linejoin="round"/>
</g>
</svg>
