<svg width="24" height="25" viewBox="0 0 24 25" fill="none" xmlns="http://www.w3.org/2000/svg">
<path d="M3 10.25H7.5V20H3C2.80109 20 2.61032 19.921 2.46967 19.7803C2.32902 19.6397 2.25 19.4489 2.25 19.25V11C2.25 10.8011 2.32902 10.6103 2.46967 10.4697C2.61032 10.329 2.80109 10.25 3 10.25V10.25Z" stroke="#0C60C2" stroke-width="1.5" stroke-linecap="round" stroke-linejoin="round"/>
<path d="M7.5 10.25L11.25 2.75C11.644 2.75 12.0341 2.8276 12.398 2.97836C12.762 3.12913 13.0927 3.3501 13.3713 3.62868C13.6499 3.90726 13.8709 4.23797 14.0216 4.60195C14.1724 4.96593 14.25 5.35603 14.25 5.75V8H20.0508C20.2635 8 20.4738 8.04523 20.6677 8.13269C20.8615 8.22016 21.0346 8.34785 21.1753 8.5073C21.3161 8.66675 21.4213 8.85431 21.4841 9.05753C21.5468 9.26076 21.5656 9.475 21.5392 9.68605L20.4142 18.6861C20.3689 19.0488 20.1926 19.3826 19.9185 19.6245C19.6444 19.8665 19.2914 20 18.9258 20H7.5" stroke="#0C60C2" stroke-width="1.5" stroke-linecap="round" stroke-linejoin="round"/>
</svg>
