<svg width="120" height="146" viewBox="0 0 120 146" fill="none" xmlns="http://www.w3.org/2000/svg">
<path d="M0 8C0 3.58173 3.58172 0 8 0H112C116.418 0 120 3.58172 120 8V138C120 142.418 116.418 146 112 146H8C3.58172 146 0 142.418 0 138V8Z" fill="#F2F2F2"/>
<path fill-rule="evenodd" clip-rule="evenodd" d="M47.7714 58.7344C45.5202 58.7344 43.6953 60.5593 43.6953 62.8104V83.1906C43.6953 85.4418 45.5202 87.2667 47.7714 87.2667H72.2276C74.4787 87.2667 76.3036 85.4418 76.3036 83.1906V62.8104C76.3036 60.5593 74.4787 58.7344 72.2276 58.7344H47.7714ZM72.2276 83.1906H47.7714L55.9234 66.8865L62.0375 79.1146L66.1135 70.9625L72.2276 83.1906Z" fill="white"/>
</svg>
