<svg width="20" height="20" viewBox="0 0 20 20" fill="none" xmlns="http://www.w3.org/2000/svg">
<g id="Microphone">
<path id="Vector" d="M9.99999 1.875H10C10.8288 1.875 11.6237 2.20424 12.2097 2.79029C12.7958 3.37634 13.125 4.1712 13.125 5V10C13.125 10.8288 12.7958 11.6237 12.2097 12.2097C11.6237 12.7958 10.8288 13.125 10 13.125H9.99999C9.58961 13.125 9.18325 13.0442 8.80411 12.8871C8.42497 12.7301 8.08047 12.4999 7.79029 12.2097C7.50011 11.9195 7.26992 11.575 7.11288 11.1959C6.95583 10.8167 6.875 10.4104 6.875 10V4.99999C6.875 4.17119 7.20424 3.37634 7.79029 2.79029C8.37634 2.20424 9.17119 1.875 9.99999 1.875V1.875Z" stroke="#333333" stroke-linecap="round" stroke-linejoin="round"/>
<path id="Vector_2" d="M10 15.625V18.125" stroke="#333333" stroke-linecap="round" stroke-linejoin="round"/>
<path id="Vector_3" d="M15.5915 10.625C15.4376 12.0001 14.7824 13.2703 13.751 14.1927C12.7196 15.1151 11.3845 15.625 10.0008 15.625C8.61715 15.625 7.28201 15.115 6.25064 14.1926C5.21927 13.2702 4.56402 12.0001 4.41016 10.625" stroke="#333333" stroke-linecap="round" stroke-linejoin="round"/>
</g>
</svg>
