<svg width="19" height="18" viewBox="0 0 19 18" fill="none" xmlns="http://www.w3.org/2000/svg">
<g id="Microphone">
<path id="Vector" d="M9.06055 12.375C9.95527 12.3741 10.8131 12.0182 11.4458 11.3856C12.0785 10.753 12.4345 9.89527 12.4355 9.00055V4.5C12.4355 3.60489 12.08 2.74645 11.447 2.11351C10.8141 1.48058 9.95565 1.125 9.06055 1.125C8.16544 1.125 7.307 1.48058 6.67406 2.11351C6.04113 2.74645 5.68555 3.60489 5.68555 4.5V9C5.68652 9.89481 6.04242 10.7527 6.67514 11.3854C7.30786 12.0181 8.16574 12.374 9.06055 12.375Z" fill="#181818"/>
<path id="Vector_2" d="M14.1544 9.00284C14.0063 8.98798 13.8584 9.03179 13.7423 9.12485C13.6262 9.21792 13.5513 9.3528 13.5336 9.50052C13.4102 10.6004 12.8858 11.6161 12.0607 12.3537C11.2356 13.0913 10.1676 13.4991 9.06086 13.499C7.95412 13.4989 6.88621 13.0911 6.0612 12.3534C5.23618 11.6157 4.71191 10.5998 4.58857 9.49997C4.57042 9.35251 4.49534 9.21798 4.37937 9.1251C4.2634 9.03222 4.11572 8.98835 3.96784 9.00284C3.8195 9.01933 3.68377 9.09401 3.59045 9.2105C3.49714 9.32699 3.45387 9.47576 3.47016 9.62412C3.61335 10.9006 4.19123 12.0889 5.10682 12.9898C6.02241 13.8906 7.22 14.4492 8.49861 14.5716V16.3115C8.49861 16.4607 8.55787 16.6038 8.66336 16.7092C8.76885 16.8147 8.91192 16.874 9.06111 16.874C9.21029 16.874 9.35337 16.8147 9.45885 16.7092C9.56434 16.6038 9.62361 16.4607 9.62361 16.3115V14.5717C10.9024 14.4495 12.1002 13.891 13.0159 12.99C13.9316 12.0889 14.5093 10.9003 14.652 9.62358C14.6683 9.47527 14.625 9.32658 14.5317 9.21017C14.4384 9.09377 14.3027 9.0192 14.1544 9.00284Z" fill="#181818"/>
</g>
</svg>
