<svg width="65" height="64" viewBox="0 0 65 64" fill="none" xmlns="http://www.w3.org/2000/svg">
<rect x="0.691406" width="64" height="64" rx="32" fill="#F2F2F2"/>
<path d="M32.6914 38C34.282 37.9983 35.807 37.3658 36.9318 36.2411C38.0567 35.1165 38.6895 33.5916 38.6914 32.001V24C38.6914 22.4087 38.0593 20.8826 36.934 19.7574C35.8088 18.6321 34.2827 18 32.6914 18C31.1001 18 29.574 18.6321 28.4488 19.7574C27.3235 20.8826 26.6914 22.4087 26.6914 24V32C26.6931 33.5908 27.3258 35.1159 28.4507 36.2407C29.5755 37.3656 31.1006 37.9983 32.6914 38Z" fill="#0C60C2"/>
<path d="M41.7462 32.0051C41.4831 31.9786 41.22 32.0565 41.0137 32.222C40.8073 32.3874 40.6741 32.6272 40.6427 32.8898C40.4232 34.8451 39.4909 36.6509 38.0241 37.9622C36.5572 39.2735 34.6586 39.9983 32.6911 39.9982C30.7236 39.9981 28.8251 39.273 27.3584 37.9615C25.8917 36.65 24.9596 34.8441 24.7404 32.8888C24.7081 32.6267 24.5746 32.3875 24.3684 32.2224C24.1623 32.0573 23.8997 31.9793 23.6368 32.0051C23.3731 32.0344 23.1318 32.1671 22.9659 32.3742C22.8 32.5813 22.7231 32.8458 22.7521 33.1095C23.0066 35.3788 24.034 37.4914 25.6617 39.093C27.2894 40.6945 29.4184 41.6874 31.6915 41.9051V44.9982C31.6915 45.2634 31.7969 45.5178 31.9844 45.7053C32.172 45.8929 32.4263 45.9982 32.6915 45.9982C32.9567 45.9982 33.2111 45.8929 33.3986 45.7053C33.5862 45.5178 33.6915 45.2634 33.6915 44.9982V41.9052C35.965 41.688 38.0944 40.6951 39.7223 39.0933C41.3501 37.4914 42.3772 35.3782 42.631 33.1086C42.6599 32.8449 42.583 32.5806 42.4171 32.3736C42.2512 32.1667 42.0099 32.0341 41.7462 32.0051Z" fill="#0C60C2"/>
</svg>
