<svg width="16" height="16" viewBox="0 0 16 16" fill="none" xmlns="http://www.w3.org/2000/svg">
<path d="M8.69224 11.2016L8.04844 11.2937V11.9441V13.6008V14.3508H8.79844H11.1984C11.2261 14.3508 11.2484 14.3732 11.2484 14.4008C11.2484 14.4284 11.2261 14.4508 11.1984 14.4508H4.79844C4.77082 14.4508 4.74844 14.4284 4.74844 14.4008C4.74844 14.3732 4.77082 14.3508 4.79844 14.3508H7.19844H7.94844V13.6008V11.9441V11.2937L7.30464 11.2016C4.95496 10.8655 3.14844 8.84348 3.14844 6.40078C3.14844 6.37317 3.17082 6.35078 3.19844 6.35078C3.22605 6.35078 3.24844 6.37317 3.24844 6.40078C3.24844 9.02413 5.37509 11.1508 7.99844 11.1508C10.6218 11.1508 12.7484 9.02413 12.7484 6.40078C12.7484 6.37317 12.7708 6.35078 12.7984 6.35078C12.8261 6.35078 12.8484 6.37317 12.8484 6.40078C12.8484 8.84348 11.0419 10.8655 8.69224 11.2016ZM6.34844 3.20078C6.34844 2.28951 7.08717 1.55078 7.99844 1.55078C8.90971 1.55078 9.64844 2.28951 9.64844 3.20078V6.40078C9.64844 7.31205 8.90971 8.05078 7.99844 8.05078C7.08717 8.05078 6.34844 7.31205 6.34844 6.40078V3.20078Z" fill="#0C60C2" stroke="#0C60C2" stroke-width="1.5" stroke-linecap="round"/>
</svg>
