<svg width="24" height="24" viewBox="0 0 24 24" fill="none" xmlns="http://www.w3.org/2000/svg">
<path d="M21.7451 19.8738C20.3456 17.4634 18.1044 15.6556 15.4525 14.7979C16.723 14.042 17.7101 12.8899 18.2624 11.5186C18.8146 10.1473 18.9014 8.63263 18.5094 7.20724C18.1174 5.78184 17.2683 4.52454 16.0925 3.62846C14.9168 2.73238 13.4793 2.24707 12.001 2.24707C10.5227 2.24707 9.08526 2.73238 7.90948 3.62846C6.73371 4.52454 5.88461 5.78184 5.49262 7.20724C5.10063 8.63263 5.18742 10.1473 5.73965 11.5186C6.29189 12.8899 7.27903 14.042 8.54946 14.7979C5.89765 15.6556 3.65655 17.4633 2.25709 19.8736C2.19112 19.9876 2.15634 20.1169 2.15625 20.2486C2.15616 20.3804 2.19075 20.5098 2.25655 20.6239C2.32235 20.738 2.41704 20.8327 2.53109 20.8986C2.64514 20.9645 2.77453 20.9992 2.90624 20.9992L21.0959 20.9994C21.2276 20.9994 21.357 20.9647 21.4711 20.8988C21.5851 20.8329 21.6798 20.7382 21.7456 20.6241C21.8114 20.51 21.846 20.3806 21.8459 20.2488C21.8458 20.1171 21.811 19.9878 21.7451 19.8738L21.7451 19.8738Z" fill="#005DAC"/>
</svg>
