<svg width="24" height="24" viewBox="0 0 24 24" fill="none" xmlns="http://www.w3.org/2000/svg">
<path d="M21.75 9C21.7495 8.60231 21.5914 8.22105 21.3102 7.93984C21.029 7.65864 20.6477 7.50045 20.25 7.5H17.25V4.5C17.2495 4.10231 17.0914 3.72105 16.8102 3.43984C16.529 3.15864 16.1477 3.00045 15.75 3H3.75C3.35231 3.00045 2.97105 3.15864 2.68984 3.43984C2.40864 3.72105 2.25045 4.10231 2.25 4.5V16.5C2.25 16.6416 2.29008 16.7803 2.36561 16.9001C2.44115 17.0199 2.54905 17.1158 2.67683 17.1768C2.80461 17.2378 2.94705 17.2614 3.08768 17.2449C3.22831 17.2283 3.36138 17.1723 3.4715 17.0832L6.75 14.4328L6.75009 17.25C6.75055 17.6477 6.90873 18.029 7.18994 18.3102C7.47114 18.5914 7.85241 18.7495 8.25009 18.75H17.024L20.5286 21.5832C20.6387 21.6723 20.7718 21.7283 20.9124 21.7449C21.053 21.7614 21.1955 21.7378 21.3233 21.6768C21.451 21.6158 21.5589 21.5199 21.6345 21.4001C21.71 21.2803 21.7501 21.1416 21.7501 21L21.75 9ZM17.7607 17.4168C17.6272 17.3089 17.4608 17.25 17.2892 17.25H8.25009L8.25 14.25H15.75C16.1477 14.2495 16.529 14.0914 16.8102 13.8102C17.0914 13.529 17.2495 13.1477 17.25 12.75V9H20.25L20.2501 19.4292L17.7607 17.4168Z" fill="#005DAC"/>
</svg>
