<svg width="25" height="24" viewBox="0 0 25 24" fill="none" xmlns="http://www.w3.org/2000/svg">
<path d="M7.4609 13.5L3.75 16.5V4.5C3.75 4.30109 3.82902 4.11032 3.96967 3.96967C4.11032 3.82902 4.30109 3.75 4.5 3.75H16.5C16.6989 3.75 16.8897 3.82902 17.0303 3.96967C17.171 4.11032 17.25 4.30109 17.25 4.5V12.75C17.25 12.9489 17.171 13.1397 17.0303 13.2803C16.8897 13.421 16.6989 13.5 16.5 13.5H7.4609Z" stroke="#828282" stroke-width="1.2" stroke-linecap="round" stroke-linejoin="round"/>
<path d="M8.25 13.5V17.25C8.25 17.4489 8.32902 17.6397 8.46967 17.7803C8.61032 17.921 8.80109 18 9 18H18.0391L21.75 21V9C21.75 8.80109 21.671 8.61032 21.5303 8.46967C21.3897 8.32902 21.1989 8.25 21 8.25H17.25" stroke="#828282" stroke-width="1.2" stroke-linecap="round" stroke-linejoin="round"/>
</svg>
