<svg width="24" height="24" viewBox="0 0 24 24" fill="none" xmlns="http://www.w3.org/2000/svg">
<path d="M20.5092 9.72189L13.0086 2.9029C12.733 2.65063 12.373 2.51072 11.9995 2.51074C11.6259 2.51077 11.2659 2.65073 10.9905 2.90304L3.4911 9.72184C3.33659 9.86254 3.21313 10.0339 3.12858 10.225C3.04404 10.4161 3.00028 10.6228 3.0001 10.8317V19.4657C2.9958 19.8426 3.12953 20.2081 3.3761 20.4933C3.51657 20.653 3.68954 20.7808 3.88342 20.8682C4.07731 20.9555 4.28763 21.0004 4.50029 20.9999H8.9968C9.19572 20.9999 9.38648 20.9209 9.52713 20.7802C9.66779 20.6396 9.7468 20.4488 9.7468 20.2499V15.7492C9.7468 15.5503 9.82582 15.3595 9.96647 15.2189C10.1071 15.0782 10.2979 14.9992 10.4968 14.9992H13.4968C13.6957 14.9992 13.8865 15.0782 14.0271 15.2189C14.1678 15.3595 14.2468 15.5503 14.2468 15.7492V20.2499C14.2468 20.4488 14.3258 20.6396 14.4665 20.7802C14.6071 20.9209 14.7979 20.9999 14.9968 20.9999H19.5022C19.7486 21.0031 19.9918 20.9432 20.2085 20.8259C20.4477 20.6968 20.6476 20.5054 20.7869 20.2719C20.9263 20.0385 20.9999 19.7718 21.0001 19.4999V10.8318C20.9999 10.6228 20.9561 10.4162 20.8716 10.2251C20.7871 10.034 20.6637 9.86261 20.5092 9.72189Z" fill="#005DAC"/>
</svg>
