<svg width="24" height="24" viewBox="0 0 24 24" fill="none" xmlns="http://www.w3.org/2000/svg">
<path d="M22.5 18H21.75V5.25C21.7495 4.85231 21.5914 4.47105 21.3102 4.18984C21.029 3.90864 20.6477 3.75045 20.25 3.75H3.75C3.35231 3.75045 2.97105 3.90864 2.68984 4.18984C2.40864 4.47105 2.25045 4.85231 2.25 5.25V18H1.5C1.30109 18 1.11032 18.079 0.96967 18.2197C0.829018 18.3603 0.75 18.5511 0.75 18.75C0.75 18.9489 0.829018 19.1397 0.96967 19.2803C1.11032 19.421 1.30109 19.5 1.5 19.5H22.5C22.6989 19.5 22.8897 19.421 23.0303 19.2803C23.171 19.1397 23.25 18.9489 23.25 18.75C23.25 18.5511 23.171 18.3603 23.0303 18.2197C22.8897 18.079 22.6989 18 22.5 18ZM18.75 18H12V16.5C12 16.4015 12.0194 16.304 12.0571 16.213C12.0948 16.122 12.15 16.0393 12.2197 15.9697C12.2893 15.9 12.372 15.8448 12.463 15.8071C12.554 15.7694 12.6515 15.75 12.75 15.75H18C18.0985 15.75 18.196 15.7694 18.287 15.8071C18.378 15.8448 18.4607 15.9 18.5303 15.9697C18.6 16.0393 18.6552 16.122 18.6929 16.213C18.7306 16.304 18.75 16.4015 18.75 16.5V18Z" fill="#005DAC"/>
</svg>
