<svg width="25" height="24" viewBox="0 0 25 24" fill="none" xmlns="http://www.w3.org/2000/svg">
<path d="M8.93934 20.2499H4.75C4.55109 20.2499 4.36032 20.1709 4.21967 20.0302C4.07902 19.8896 4 19.6988 4 19.4999V15.3105C4 15.2121 4.0194 15.1145 4.05709 15.0235C4.09478 14.9325 4.15003 14.8499 4.21967 14.7802L15.4697 3.53022C15.6103 3.38956 15.8011 3.31055 16 3.31055C16.1989 3.31055 16.3897 3.38956 16.5303 3.53022L20.7197 7.71956C20.8603 7.86021 20.9393 8.05097 20.9393 8.24989C20.9393 8.4488 20.8603 8.63956 20.7197 8.78022L9.46967 20.0302C9.40003 20.0999 9.31735 20.1551 9.22635 20.1928C9.13536 20.2305 9.03783 20.2499 8.93934 20.2499Z" stroke="#828282" stroke-width="1.2" stroke-linecap="round" stroke-linejoin="round"/>
<path d="M13 6L18.25 11.25" stroke="#828282" stroke-width="1.2" stroke-linecap="round" stroke-linejoin="round"/>
<path d="M9.20223 20.202L4.04785 15.0476" stroke="#828282" stroke-width="1.2" stroke-linecap="round" stroke-linejoin="round"/>
</svg>
