<svg width="36" height="36" viewBox="0 0 36 36" fill="none" xmlns="http://www.w3.org/2000/svg">
<path d="M22.2526 23H27.6693L26.1473 21.5951C25.7345 21.2141 25.5026 20.6973 25.5026 20.1585V17C25.5026 14.3876 23.6939 12.1651 21.1693 11.3414V11C21.1693 9.89543 20.1992 9 19.0026 9C17.806 9 16.8359 9.89543 16.8359 11V11.3414C14.3114 12.1651 12.5026 14.3876 12.5026 17V20.1585C12.5026 20.6973 12.2707 21.2141 11.8579 21.5951L10.3359 23H15.7526M22.2526 23V24C22.2526 25.6569 20.7975 27 19.0026 27C17.2077 27 15.7526 25.6569 15.7526 24V23M22.2526 23H15.7526" stroke="white" stroke-width="1.5" stroke-linecap="round" stroke-linejoin="round"/>
</svg>
