<svg width="36" height="36" viewBox="0 0 36 36" fill="none" xmlns="http://www.w3.org/2000/svg">
<path d="M22.2487 23H27.6654L26.1434 21.5951C25.7306 21.2141 25.4987 20.6973 25.4987 20.1585V17C25.4987 14.3876 23.6899 12.1651 21.1654 11.3414V11C21.1654 9.89543 20.1953 9 18.9987 9C17.8021 9 16.832 9.89543 16.832 11V11.3414C14.3074 12.1651 12.4987 14.3876 12.4987 17V20.1585C12.4987 20.6973 12.2668 21.2141 11.854 21.5951L10.332 23H15.7487M22.2487 23V24C22.2487 25.6569 20.7936 27 18.9987 27C17.2038 27 15.7487 25.6569 15.7487 24V23M22.2487 23H15.7487" stroke="#666666" stroke-width="1.5" stroke-linecap="round" stroke-linejoin="round"/>
</svg>
