<svg width="24" height="24" viewBox="0 0 24 24" fill="none" xmlns="http://www.w3.org/2000/svg">
<rect x="0.375" y="0.375" width="23.25" height="23.25" rx="11.625" fill="white"/>
<rect x="0.375" y="0.375" width="23.25" height="23.25" rx="11.625" stroke="#E5EBFF" stroke-width="0.75"/>
<path fill-rule="evenodd" clip-rule="evenodd" d="M6.75256 8.5C6.75256 7.5335 6.66094 6.75 7.6261 6.75H9.37367C10.3388 6.75 10.2477 7.5335 10.2477 8.5V15.5C10.2477 16.4665 10.3388 17.25 9.37367 17.25H7.6261C6.66094 17.25 6.75232 16.4665 6.75232 15.5L6.75256 8.5Z" fill="#0C60C2"/>
<path fill-rule="evenodd" clip-rule="evenodd" d="M13.7526 8.5C13.7526 7.5335 13.6609 6.75 14.6261 6.75H16.3737C17.3388 6.75 17.2477 7.5335 17.2477 8.5V15.5C17.2477 16.4665 17.3388 17.25 16.3737 17.25H14.6261C13.6609 17.25 13.7523 16.4665 13.7523 15.5L13.7526 8.5Z" fill="#0C60C2"/>
</svg>
