<svg width="32" height="32" viewBox="0 0 32 32" fill="none" xmlns="http://www.w3.org/2000/svg">
<rect x="0.5" y="0.5" width="31" height="31" rx="15.5" fill="white"/>
<path fill-rule="evenodd" clip-rule="evenodd" d="M9.00341 11.3333C9.00341 10.0447 8.88126 9 10.1681 9H12.4982C13.7851 9 13.6636 10.0447 13.6636 11.3333V20.6667C13.6636 21.9553 13.7851 23 12.4982 23H10.1681C8.88126 23 9.00309 21.9553 9.00309 20.6667L9.00341 11.3333Z" fill="#0C60C2"/>
<path fill-rule="evenodd" clip-rule="evenodd" d="M18.3394 11.3333C18.3394 10.0447 18.2172 9 19.5041 9H21.8342C23.121 9 22.9995 10.0447 22.9995 11.3333V20.6667C22.9995 21.9553 23.121 23 21.8342 23H19.5041C18.2172 23 18.339 21.9553 18.339 20.6667L18.3394 11.3333Z" fill="#0C60C2"/>
<rect x="0.5" y="0.5" width="31" height="31" rx="15.5" stroke="#E5EBFF"/>
</svg>
