<svg width="50" height="50" viewBox="0 0 50 50" fill="none" xmlns="http://www.w3.org/2000/svg">
<path d="M0 4C0 1.79086 1.79086 0 4 0H46C48.2091 0 50 1.79086 50 4V46C50 48.2091 48.2091 50 46 50H4C1.79086 50 0 48.2091 0 46V4Z" fill="#F2F2F2"/>
<path fill-rule="evenodd" clip-rule="evenodd" d="M17.1996 15.9004C15.7637 15.9004 14.5996 17.0645 14.5996 18.5004V31.5004C14.5996 32.9363 15.7637 34.1004 17.1996 34.1004H32.7996C34.2355 34.1004 35.3996 32.9363 35.3996 31.5004V18.5004C35.3996 17.0645 34.2355 15.9004 32.7996 15.9004H17.1996ZM32.7996 31.5004H17.1996L22.3996 21.1004L26.2996 28.9004L28.8996 23.7004L32.7996 31.5004Z" fill="white"/>
</svg>
