<svg width="64" height="64" viewBox="0 0 64 64" fill="none" xmlns="http://www.w3.org/2000/svg">
<rect width="64" height="64" rx="32" fill="#F2F2F2"/>
<path d="M45.0391 30.2917L27.043 19.2937C26.7398 19.1083 26.3928 19.0071 26.0376 19.0004C25.6823 18.9936 25.3317 19.0817 25.0218 19.2554C24.7119 19.4292 24.4538 19.6824 24.2742 19.989C24.0947 20.2956 24 20.6444 24 20.9997V42.9978C24.0003 43.353 24.0951 43.7017 24.2748 44.0081C24.4544 44.3145 24.7124 44.5676 25.0223 44.7413C25.3321 44.915 25.6826 45.003 26.0377 44.9965C26.3928 44.9899 26.7398 44.8889 27.043 44.7038L45.0391 33.7058C45.3314 33.527 45.5729 33.2762 45.7405 32.9773C45.9081 32.6784 45.9961 32.3414 45.9961 31.9988C45.9961 31.6561 45.9081 31.3192 45.7405 31.0203C45.5729 30.7214 45.3314 30.4705 45.0391 30.2917Z" fill="#0C60C2"/>
</svg>
