<svg width="40" height="40" viewBox="0 0 40 40" fill="none" xmlns="http://www.w3.org/2000/svg">
<rect x="0.5" y="0.5" width="39" height="39" rx="19.5" stroke="#E7EAEE"/>
<path d="M24.8896 19.3594L18.1411 15.2351C18.0274 15.1656 17.8973 15.1277 17.7641 15.1251C17.6309 15.1226 17.4994 15.1556 17.3832 15.2208C17.2669 15.2859 17.1702 15.3809 17.1028 15.4959C17.0355 15.6108 17 15.7417 17 15.8749V24.1242C17.0001 24.2574 17.0357 24.3881 17.103 24.503C17.1704 24.6179 17.2672 24.7128 17.3833 24.778C17.4995 24.8431 17.631 24.8761 17.7641 24.8737C17.8973 24.8712 18.0274 24.8333 18.1411 24.7639L24.8896 20.6397C24.9993 20.5726 25.0899 20.4786 25.1527 20.3665C25.2155 20.2544 25.2485 20.128 25.2485 19.9995C25.2485 19.871 25.2155 19.7447 25.1527 19.6326C25.0899 19.5205 24.9993 19.4264 24.8896 19.3594Z" fill="white"/>
</svg>
