<svg width="25" height="24" viewBox="0 0 25 24" fill="none" xmlns="http://www.w3.org/2000/svg">
<rect x="0.859375" y="0.359375" width="23.2812" height="23.2812" rx="11.6406" fill="white"/>
<rect x="0.859375" y="0.359375" width="23.2812" height="23.2812" rx="11.6406" stroke="#E5EBFF" stroke-width="0.71875"/>
<path d="M17.156 11.3964L10.0994 7.08391C9.98058 7.01123 9.84451 6.97153 9.70521 6.96889C9.56591 6.96625 9.42843 7.00078 9.30691 7.06891C9.18538 7.13705 9.08421 7.23633 9.01379 7.35654C8.94337 7.47675 8.90625 7.61356 8.90625 7.75288V16.3786C8.90636 16.5179 8.94355 16.6547 9.014 16.7748C9.08445 16.8949 9.18561 16.9942 9.30709 17.0623C9.42858 17.1304 9.566 17.1649 9.70526 17.1624C9.84451 17.1598 9.98056 17.1202 10.0994 17.0476L17.156 12.7351C17.2706 12.665 17.3653 12.5667 17.431 12.4495C17.4967 12.3322 17.5312 12.2001 17.5312 12.0658C17.5312 11.9314 17.4967 11.7993 17.431 11.6821C17.3653 11.5649 17.2706 11.4665 17.156 11.3964Z" fill="#0C60C2"/>
</svg>
