<svg width="16" height="16" viewBox="0 0 16 16" fill="none" xmlns="http://www.w3.org/2000/svg">
<path d="M12.2014 6.93851L4.33084 2.12851C4.19827 2.04744 4.0465 2.00316 3.89113 2.00022C3.73576 1.99728 3.58242 2.03578 3.44688 2.11178C3.31133 2.18777 3.19848 2.29851 3.11994 2.43259C3.0414 2.56667 3 2.71926 3 2.87465V12.4955C3.00013 12.6508 3.04161 12.8034 3.12018 12.9374C3.19875 13.0714 3.31158 13.182 3.44708 13.258C3.58258 13.334 3.73587 13.3725 3.89118 13.3696C4.0465 13.3668 4.19825 13.3226 4.33084 13.2416L12.2014 8.43165C12.3293 8.35346 12.4349 8.24375 12.5082 8.11303C12.5815 7.9823 12.62 7.83495 12.62 7.68508C12.62 7.53521 12.5815 7.38786 12.5082 7.25713C12.4349 7.12641 12.3293 7.01669 12.2014 6.93851V6.93851Z" fill="#005DAC"/>
</svg>
