<svg width="11" height="10" viewBox="0 0 11 10" fill="none" xmlns="http://www.w3.org/2000/svg">
<path d="M8.94104 9.97153C8.5675 10.2376 6.17071 8.55103 5.71167 8.54732C5.25263 8.54365 2.82886 10.1914 2.45968 9.91938C2.0905 9.64734 2.95843 6.85316 2.82011 6.4167C2.6818 5.98025 0.361186 4.19082 0.506551 3.75663C0.651948 3.32245 3.58514 3.28212 3.95868 3.01606C4.33222 2.75003 5.32179 -0.00367125 5.78086 3.6749e-06C6.23987 0.00371055 7.18474 2.77297 7.55392 3.04501C7.9231 3.31702 10.8553 3.40458 10.9936 3.84103C11.132 4.27748 8.78273 6.02933 8.63733 6.46352C8.49196 6.8977 9.31458 9.70547 8.94104 9.97153Z" fill="url(#paint0_linear_5073_30323)"/>
<defs>
<linearGradient id="paint0_linear_5073_30323" x1="0.500013" y1="5.00001" x2="10.9995" y2="5.00001" gradientUnits="userSpaceOnUse">
<stop stop-color="#FCD635"/>
<stop offset="1" stop-color="#F7A928"/>
</linearGradient>
</defs>
</svg>
