<svg width="8" height="8" viewBox="0 0 8 8" fill="none" xmlns="http://www.w3.org/2000/svg">
<g id="Star Point">
<path id="Vector" d="M6.43156 7.97723C6.14695 8.19008 4.32074 6.84082 3.97098 6.83786C3.62122 6.83492 1.77445 8.15314 1.49316 7.9355C1.21187 7.71787 1.87317 5.48252 1.76779 5.13336C1.6624 4.7842 -0.105768 3.35265 0.00499147 3.00531C0.115775 2.65796 2.35069 2.6257 2.6353 2.41285C2.91992 2.20002 3.67391 -0.002937 4.0237 2.93992e-06C4.37344 0.00296844 5.09337 2.21838 5.37466 2.43601C5.65595 2.65362 7.89011 2.72366 7.99552 3.07282C8.10091 3.42199 6.31094 4.82347 6.20015 5.17081C6.0894 5.51816 6.71618 7.76438 6.43156 7.97723Z" fill="white"/>
</g>
</svg>
