<svg width="40" height="40" viewBox="0 0 40 40" fill="none" xmlns="http://www.w3.org/2000/svg">
<rect width="40" height="40" rx="20" fill="#F2F2F2"/>
<path d="M26.5276 13.4728C24.7951 11.7442 22.4478 10.7734 20.0004 10.7734C17.5531 10.7734 15.2057 11.7442 13.4732 13.4728L11.5228 15.4232V12.6649C11.5228 12.4609 11.4418 12.2652 11.2975 12.121C11.1533 11.9767 10.9576 11.8957 10.7536 11.8957C10.5496 11.8957 10.3539 11.9767 10.2097 12.121C10.0654 12.2652 9.98438 12.4609 9.98438 12.6649V17.2798C9.98438 17.3054 9.98566 17.331 9.98822 17.3564C9.98923 17.3668 9.99123 17.3768 9.99263 17.3871C9.99468 17.4017 9.99644 17.4164 9.99932 17.4309C10.0017 17.443 10.0051 17.4547 10.0081 17.4667C10.0112 17.4791 10.0139 17.4916 10.0176 17.5039C10.0212 17.5156 10.0256 17.527 10.0297 17.5385C10.0341 17.5507 10.0381 17.5629 10.0431 17.5749C10.0475 17.5856 10.0527 17.5958 10.0576 17.6062C10.0634 17.6186 10.0689 17.631 10.0754 17.6432C10.0807 17.653 10.0867 17.6624 10.0924 17.672C10.0995 17.684 10.1063 17.696 10.1141 17.7076C10.1211 17.7181 10.129 17.728 10.1366 17.7382C10.144 17.7482 10.1509 17.7583 10.1589 17.768C10.1732 17.7854 10.1884 17.802 10.2041 17.8181C10.206 17.82 10.2077 17.8222 10.2096 17.8242C10.2112 17.8257 10.2129 17.827 10.2144 17.8286C10.2309 17.8448 10.2481 17.8604 10.266 17.8751C10.275 17.8825 10.2845 17.889 10.2938 17.8959C10.3046 17.904 10.3152 17.9124 10.3265 17.9199C10.3374 17.9272 10.3487 17.9335 10.3598 17.9402C10.3702 17.9464 10.3804 17.9529 10.3911 17.9587C10.4023 17.9647 10.4139 17.9697 10.4253 17.9751C10.4366 17.9805 10.4478 17.9862 10.4594 17.991C10.4704 17.9955 10.4815 17.9991 10.4926 18.0031C10.5052 18.0077 10.5176 18.0125 10.5305 18.0164C10.5415 18.0197 10.5526 18.0221 10.5637 18.0249C10.5769 18.0283 10.59 18.032 10.6035 18.0346C10.616 18.0371 10.6287 18.0386 10.6413 18.0404C10.6536 18.0422 10.6656 18.0445 10.678 18.0457C10.7003 18.0479 10.7227 18.0488 10.7451 18.0491C10.748 18.0491 10.7507 18.0495 10.7536 18.0495H15.369C15.573 18.0495 15.7687 17.9685 15.9129 17.8242C16.0572 17.6799 16.1382 17.4843 16.1382 17.2803C16.1382 17.0763 16.0572 16.8806 15.9129 16.7364C15.7687 16.5921 15.573 16.511 15.369 16.511H12.6107L14.5612 14.5606C15.637 13.4848 17.0076 12.7522 18.4998 12.4554C19.9919 12.1586 21.5386 12.3109 22.9442 12.8931C24.3497 13.4753 25.5511 14.4613 26.3964 15.7263C27.2416 16.9913 27.6927 18.4785 27.6927 19.9999C27.6927 21.5213 27.2416 23.0085 26.3964 24.2735C25.5511 25.5385 24.3497 26.5244 22.9442 27.1066C21.5386 27.6889 19.9919 27.8412 18.4998 27.5444C17.0076 27.2476 15.637 26.515 14.5612 25.4392C14.4897 25.3677 14.4049 25.3111 14.3116 25.2724C14.2183 25.2338 14.1182 25.2139 14.0172 25.2139C13.9162 25.2139 13.8161 25.2338 13.7228 25.2724C13.6295 25.3111 13.5447 25.3677 13.4732 25.4392C13.4018 25.5106 13.3451 25.5954 13.3065 25.6887C13.2678 25.7821 13.2479 25.8821 13.2479 25.9831C13.2479 26.0842 13.2678 26.1842 13.3065 26.2775C13.3451 26.3709 13.4018 26.4557 13.4732 26.5271C14.3303 27.3846 15.3479 28.0649 16.468 28.529C17.588 28.9932 18.7885 29.2322 20.0009 29.2323C21.2133 29.2325 22.4138 28.9938 23.5339 28.5299C24.6541 28.066 25.6719 27.386 26.5291 26.5287C27.3864 25.6714 28.0665 24.6536 28.5304 23.5335C28.9943 22.4133 29.2329 21.2128 29.2328 20.0004C29.2327 18.788 28.9937 17.5875 28.5295 16.4675C28.0654 15.3475 27.3851 14.3299 26.5276 13.4728Z" fill="#0C60C2"/>
</svg>
