<svg width="24" height="24" viewBox="0 0 24 24" fill="none" xmlns="http://www.w3.org/2000/svg">
<rect width="24" height="24" rx="4" fill="#F2F2F2"/>
<path d="M9.17773 10.3429H6.36523V7.5304" stroke="#181818" stroke-width="1.5" stroke-linecap="round" stroke-linejoin="round"/>
<path d="M15.646 8.35398C15.1672 7.87518 14.5988 7.49537 13.9732 7.23625C13.3476 6.97712 12.6771 6.84375 12 6.84375C11.3229 6.84375 10.6524 6.97712 10.0268 7.23625C9.40119 7.49537 8.83277 7.87518 8.35397 8.35398L6.36523 10.3427" stroke="#181818" stroke-width="1.5" stroke-linecap="round" stroke-linejoin="round"/>
<path d="M14.8223 13.6571H17.6348V16.4696" stroke="#181818" stroke-width="1.5" stroke-linecap="round" stroke-linejoin="round"/>
<path d="M8.35547 15.6458C8.83427 16.1246 9.40269 16.5045 10.0283 16.7636C10.6539 17.0227 11.3244 17.1561 12.0015 17.1561C12.6786 17.1561 13.3491 17.0227 13.9747 16.7636C14.6003 16.5045 15.1687 16.1246 15.6475 15.6458L17.6362 13.6571" stroke="#181818" stroke-width="1.5" stroke-linecap="round" stroke-linejoin="round"/>
</svg>
