<svg width="24" height="24" viewBox="0 0 24 24" fill="none" xmlns="http://www.w3.org/2000/svg">
<rect width="24" height="24" rx="4" fill="#F2F2F2"/>
<path d="M9.17969 10.3428H6.36719V7.53027" stroke="#181818" stroke-width="1.5" stroke-linecap="round" stroke-linejoin="round"/>
<path d="M15.648 8.35398C15.1692 7.87518 14.6007 7.49537 13.9752 7.23625C13.3496 6.97712 12.6791 6.84375 12.0019 6.84375C11.3248 6.84375 10.6543 6.97712 10.0287 7.23625C9.40315 7.49537 8.83473 7.87518 8.35592 8.35398L6.36719 10.3427" stroke="#181818" stroke-width="1.5" stroke-linecap="round" stroke-linejoin="round"/>
<path d="M14.8203 13.6572H17.6328V16.4697" stroke="#181818" stroke-width="1.5" stroke-linecap="round" stroke-linejoin="round"/>
<path d="M8.35156 15.646C8.83036 16.1248 9.39879 16.5046 10.0244 16.7637C10.65 17.0228 11.3205 17.1562 11.9976 17.1562C12.6747 17.1562 13.3452 17.0228 13.9708 16.7637C14.5964 16.5046 15.1648 16.1248 15.6436 15.646L17.6323 13.6572" stroke="#181818" stroke-width="1.5" stroke-linecap="round" stroke-linejoin="round"/>
</svg>
