<svg width="18" height="18" viewBox="0 0 18 18" fill="none" xmlns="http://www.w3.org/2000/svg">
<rect width="18" height="18" rx="4" fill="#F2F2F2"/>
<path d="M6.67578 6.84277H3.86328V4.03027" stroke="#181818" stroke-width="1.5" stroke-linecap="round" stroke-linejoin="round"/>
<path d="M5.85592 12.146C6.57704 12.8671 7.4958 13.3582 8.49601 13.5572C9.49622 13.7561 10.533 13.654 11.4752 13.2638C12.4173 12.8735 13.2226 12.2126 13.7892 11.3647C14.3558 10.5167 14.6582 9.51981 14.6582 8.5C14.6582 7.48019 14.3558 6.48328 13.7892 5.63534C13.2226 4.7874 12.4173 4.12651 11.4752 3.73625C10.533 3.34598 9.49622 3.24387 8.49601 3.44283C7.4958 3.64178 6.57704 4.13287 5.85592 4.85398L3.86719 6.84272" stroke="#181818" stroke-width="1.2" stroke-linecap="round" stroke-linejoin="round"/>
</svg>
