<svg width="80" height="80" viewBox="0 0 80 80" fill="none" xmlns="http://www.w3.org/2000/svg">
<rect width="80" height="80" rx="40" fill="#0C60C2"/>
<g clip-path="url(#clip0_4871_85162)">
<path d="M21.5387 39.0563L19.8591 38.3693C18.6655 37.888 17.815 37.5904 17.815 36.8299C17.815 36.0694 18.4297 35.6763 19.4231 35.6763C20.4358 35.6901 21.4123 36.0655 22.1855 36.738L23.7864 34.6733C22.6197 33.4963 21.0505 32.8368 19.416 32.8363C16.5607 32.8363 14.5381 34.6953 14.5381 37.0136C14.5381 39.0195 15.8567 40.2283 17.2683 40.8051L18.9836 41.5399C20.1414 42.0395 20.8811 42.3004 20.8811 43.1013C20.8811 43.8361 20.3201 44.3063 19.1265 44.3063C18.0544 44.3063 16.8144 43.7295 15.8567 42.8955L14.0342 45.1881C15.4144 46.4594 17.2019 47.1631 19.055 47.1647C22.307 47.1647 24.1867 45.1403 24.1867 42.8404C24.1867 40.8896 23.1932 39.7396 21.5315 39.0489L21.5387 39.0563Z" fill="white"/>
<path d="M31.136 33.0975H25.5576L26.4224 33.9683V46.9152H29.6386V42.3265H31.2146C34.0627 42.3265 36.5463 40.8789 36.5463 37.5908C36.5463 34.174 34.0984 33.0975 31.136 33.0975ZM31.0645 39.7106H29.6529V35.7171H30.9751C32.5261 35.7171 33.3944 36.1983 33.3944 37.5908C33.3944 38.9832 32.6368 39.7106 31.0645 39.7106Z" fill="white"/>
<path d="M42.0652 41.1949H46.5607V38.41H42.0652V35.8456H47.3576V33.0975H41.9973H38.8311H38.0342L38.8311 33.8985V46.9152H47.5577V44.1267H42.0652V41.1949Z" fill="white"/>
<path d="M54.9248 33.0975H49.3857L50.2112 33.9389V46.9152H53.4274V42.3265H54.9962C57.8337 42.3265 60.3066 40.8789 60.3066 37.5908C60.3066 34.174 57.8694 33.0975 54.9069 33.0975H54.9248ZM54.8533 39.7106H53.4453V35.7171H54.7747C56.3292 35.7171 57.1976 36.1983 57.1976 37.5908C57.1976 38.9832 56.44 39.7106 54.8676 39.7106H54.8533Z" fill="white"/>
<path d="M65.9777 33.0975H62.0146L65.9777 37.0874V33.0975Z" fill="white"/>
</g>
<defs>
<clipPath id="clip0_4871_85162">
<rect width="51.9403" height="14.3284" fill="white" transform="translate(14.0303 32.8358)"/>
</clipPath>
</defs>
</svg>
