<svg width="40" height="40" viewBox="0 0 40 40" fill="none" xmlns="http://www.w3.org/2000/svg">
<rect width="40" height="40" rx="20" fill="#F2F2F2"/>
<path d="M30.761 25.2756C30.7589 25.2609 30.7572 25.2462 30.7543 25.2316C30.7519 25.2196 30.7486 25.2079 30.7456 25.1961C30.7425 25.1836 30.7397 25.171 30.7359 25.1586C30.7324 25.147 30.7281 25.1358 30.724 25.1244C30.7197 25.1121 30.7155 25.0996 30.7105 25.0875C30.7062 25.0771 30.7011 25.0672 30.6964 25.057C30.6904 25.0444 30.6848 25.0316 30.6781 25.0192C30.6731 25.0099 30.6674 25.001 30.662 24.992C30.6547 24.9794 30.6475 24.9668 30.6394 24.9546C30.633 24.9451 30.6258 24.9363 30.6191 24.9271C30.611 24.916 30.6033 24.9049 30.5945 24.8942C30.5834 24.8806 30.5713 24.8679 30.5592 24.8551C30.554 24.8496 30.5494 24.8437 30.544 24.8382L28.2363 22.5306C28.1648 22.4591 28.08 22.4025 27.9867 22.3638C27.8934 22.3251 27.7933 22.3052 27.6923 22.3052C27.5913 22.3052 27.4912 22.3251 27.3979 22.3638C27.3046 22.4025 27.2198 22.4591 27.1483 22.5306C27.0769 22.602 27.0202 22.6868 26.9816 22.7801C26.9429 22.8735 26.923 22.9735 26.923 23.0745C26.923 23.1755 26.9429 23.2756 26.9816 23.3689C27.0202 23.4622 27.0769 23.547 27.1483 23.6185L28.1429 24.613H27.013C26.1561 24.6121 25.3117 24.4072 24.5497 24.015C23.7878 23.6229 23.1302 23.055 22.6314 22.3582L18.6205 16.7429C17.9792 15.847 17.1337 15.1167 16.1541 14.6126C15.1744 14.1084 14.0887 13.8449 12.987 13.8438H10.7692C10.5652 13.8438 10.3696 13.9248 10.2253 14.0691C10.081 14.2133 10 14.409 10 14.613C10 14.817 10.081 15.0127 10.2253 15.1569C10.3696 15.3012 10.5652 15.3822 10.7692 15.3822H12.987C13.8439 15.3831 14.6883 15.588 15.4503 15.9801C16.2122 16.3723 16.8698 16.9402 17.3686 17.637L21.3795 23.2523C22.0208 24.1482 22.8663 24.8785 23.8459 25.3826C24.8256 25.8868 25.9113 26.1503 27.013 26.1514H28.1429L27.1483 27.1459C27.0041 27.2902 26.923 27.4859 26.923 27.6899C26.923 27.8939 27.0041 28.0896 27.1483 28.2339C27.2926 28.3781 27.4883 28.4592 27.6923 28.4592C27.8963 28.4592 28.092 28.3781 28.2363 28.2339L30.544 25.9262C30.5494 25.9208 30.554 25.9148 30.5592 25.9093C30.5713 25.8965 30.5834 25.8838 30.5945 25.8702C30.6033 25.8596 30.611 25.8484 30.6191 25.8374C30.6258 25.8282 30.633 25.8193 30.6394 25.8098C30.6475 25.7976 30.6547 25.785 30.662 25.7725C30.6674 25.7634 30.6731 25.7546 30.6781 25.7452C30.6848 25.7328 30.6904 25.7201 30.6964 25.7074C30.7011 25.6972 30.7062 25.6873 30.7105 25.6769C30.7155 25.6648 30.7197 25.6524 30.724 25.64C30.7281 25.6286 30.7324 25.6174 30.7359 25.6058C30.7397 25.5934 30.7425 25.5809 30.7456 25.5683C30.7486 25.5565 30.7519 25.5448 30.7543 25.5328C30.7572 25.5182 30.7589 25.5035 30.761 25.4889C30.7624 25.4787 30.7643 25.4687 30.7654 25.4584C30.7704 25.4077 30.7704 25.3567 30.7654 25.3061C30.7643 25.2958 30.7624 25.2858 30.761 25.2756Z" fill="#0C60C2"/>
<path d="M21.4433 17.9796C21.5255 18.0384 21.6184 18.0804 21.7168 18.1032C21.8152 18.126 21.9172 18.1292 22.0168 18.1126C22.1165 18.0959 22.2119 18.0599 22.2976 18.0064C22.3833 17.9529 22.4576 17.883 22.5163 17.8008L22.631 17.6401C23.1298 16.9433 23.7874 16.3753 24.5494 15.9832C25.3113 15.5911 26.1557 15.3861 27.0127 15.3853H28.1425L27.148 16.3798C27.0037 16.524 26.9227 16.7197 26.9227 16.9237C26.9227 17.1278 27.0037 17.3234 27.148 17.4677C27.2923 17.612 27.4879 17.693 27.692 17.693C27.896 17.693 28.0917 17.612 28.2359 17.4677L30.5436 15.16C30.5491 15.1546 30.5537 15.1487 30.5589 15.1431C30.5709 15.1304 30.583 15.1176 30.5942 15.104C30.603 15.0934 30.6107 15.0822 30.6187 15.0712C30.6255 15.062 30.6326 15.0531 30.639 15.0436C30.6472 15.0315 30.6543 15.0188 30.6617 15.0063C30.667 14.9972 30.6728 14.9884 30.6777 14.9791C30.6844 14.9667 30.6901 14.9539 30.696 14.9412C30.7008 14.9311 30.7058 14.9211 30.7101 14.9108C30.7152 14.8986 30.7193 14.8862 30.7237 14.8738C30.7277 14.8625 30.7321 14.8513 30.7356 14.8397C30.7393 14.8273 30.7421 14.8147 30.7453 14.8021C30.7482 14.7903 30.7516 14.7787 30.7539 14.7666C30.7568 14.7521 30.7586 14.7374 30.7606 14.7227C30.762 14.7125 30.764 14.7025 30.765 14.6922C30.7701 14.6415 30.7701 14.5905 30.765 14.5399C30.764 14.5296 30.762 14.5196 30.7606 14.5094C30.7586 14.4947 30.7568 14.48 30.7539 14.4654C30.7516 14.4534 30.7482 14.4418 30.7453 14.4299C30.7421 14.4174 30.7393 14.4048 30.7356 14.3924C30.7321 14.3808 30.7277 14.3696 30.7237 14.3583C30.7193 14.3459 30.7152 14.3335 30.7101 14.3213C30.7058 14.3109 30.7008 14.301 30.696 14.2909C30.6901 14.2782 30.6844 14.2654 30.6777 14.253C30.6728 14.2437 30.667 14.2349 30.6617 14.2258C30.6543 14.2133 30.6472 14.2006 30.639 14.1885C30.6326 14.179 30.6255 14.1701 30.6187 14.1609C30.6107 14.1499 30.603 14.1387 30.5942 14.128C30.583 14.1145 30.5709 14.1017 30.5589 14.089C30.5537 14.0834 30.5491 14.0775 30.5436 14.0721L28.2359 11.7644C28.0917 11.6201 27.896 11.5391 27.692 11.5391C27.4879 11.5391 27.2923 11.6201 27.148 11.7644C27.0037 11.9086 26.9227 12.1043 26.9227 12.3083C26.9227 12.5124 27.0037 12.708 27.148 12.8523L28.1425 13.8468H27.0127C25.9109 13.8479 24.8252 14.1115 23.8456 14.6156C22.8659 15.1198 22.0204 15.8501 21.3791 16.746L21.2644 16.9066C21.2057 16.9888 21.1637 17.0818 21.1409 17.1802C21.1181 17.2786 21.115 17.3806 21.1316 17.4802C21.1482 17.5798 21.1843 17.6752 21.2377 17.7609C21.2912 17.8466 21.3611 17.9209 21.4433 17.9796Z" fill="#0C60C2"/>
<path d="M18.5564 22.0184C18.4742 21.9596 18.3812 21.9177 18.2828 21.8948C18.1844 21.872 18.0825 21.8689 17.9828 21.8855C17.8832 21.9021 17.7878 21.9382 17.7021 21.9917C17.6164 22.0452 17.5421 22.115 17.4834 22.1973L17.3686 22.3579C16.8698 23.0547 16.2122 23.6227 15.4503 24.0148C14.6883 24.4069 13.8439 24.6119 12.987 24.6127H10.7692C10.5652 24.6127 10.3696 24.6938 10.2253 24.838C10.081 24.9823 10 25.178 10 25.382C10 25.586 10.081 25.7816 10.2253 25.9259C10.3696 26.0702 10.5652 26.1512 10.7692 26.1512H12.987C14.0887 26.1501 15.1744 25.8865 16.1541 25.3824C17.1337 24.8782 17.9792 24.148 18.6205 23.252L18.7353 23.0914C18.794 23.0092 18.8359 22.9162 18.8587 22.8178C18.8815 22.7194 18.8847 22.6175 18.8681 22.5178C18.8515 22.4182 18.8154 22.3228 18.7619 22.2371C18.7084 22.1514 18.6386 22.0771 18.5564 22.0184Z" fill="#0C60C2"/>
</svg>
