<svg width="28" height="28" viewBox="0 0 28 28" fill="none" xmlns="http://www.w3.org/2000/svg">
<g id="SkipBack">
<path id="Vector" d="M7.34647 13.2533L20.5435 5.18844C20.6761 5.10738 20.8279 5.06312 20.9833 5.06021C21.1388 5.0573 21.2922 5.09585 21.4277 5.17189C21.5633 5.24792 21.6762 5.35871 21.7547 5.49284C21.8333 5.62697 21.8747 5.77961 21.8747 5.93506V22.0647C21.8747 22.2202 21.8333 22.3728 21.7547 22.5069C21.6762 22.6411 21.5633 22.7518 21.4277 22.8279C21.2922 22.9039 21.1388 22.9425 20.9833 22.9396C20.8279 22.9366 20.6761 22.8924 20.5435 22.8113L7.34647 14.7465C7.21856 14.6683 7.11289 14.5586 7.03956 14.4279C6.96624 14.2972 6.92773 14.1498 6.92773 13.9999C6.92773 13.85 6.96624 13.7026 7.03956 13.5719C7.11289 13.4411 7.21856 13.3314 7.34647 13.2533Z" fill="#005DAC" stroke="#005DAC" stroke-width="1.5" stroke-linecap="round" stroke-linejoin="round"/>
<path id="Vector_2" d="M6.125 4.375V23.625" stroke="#005DAC" stroke-width="2" stroke-linecap="round" stroke-linejoin="round"/>
</g>
</svg>
