<svg width="21" height="20" viewBox="0 0 21 20" fill="none" xmlns="http://www.w3.org/2000/svg">
<g id="SpeakerHigh">
<path id="Vector" d="M17.6016 6.02344C18.1239 6.54577 18.5382 7.16586 18.8209 7.84832C19.1036 8.53078 19.2491 9.26223 19.2491 10.0009C19.2491 10.7396 19.1036 11.4711 18.8209 12.1535C18.5382 12.836 18.1239 13.4561 17.6016 13.9784" stroke="#0C60C2" stroke-width="1.5" stroke-linecap="round" stroke-linejoin="round"/>
<path id="Vector_2" d="M6.75 13.125H3C2.83424 13.125 2.67527 13.0592 2.55806 12.9419C2.44085 12.8247 2.375 12.6658 2.375 12.5V7.5C2.375 7.33424 2.44085 7.17527 2.55806 7.05806C2.67527 6.94085 2.83424 6.875 3 6.875H6.75L12.375 2.5V17.5L6.75 13.125Z" fill="#0C60C2" stroke="#0C60C2" stroke-width="1.5" stroke-linecap="round" stroke-linejoin="round"/>
<path id="Vector_3" d="M6.75 6.875V13.125" stroke="#0C60C2" stroke-width="1.5" stroke-linecap="round" stroke-linejoin="round"/>
<path id="Vector_4" d="M15.3906 8.23047C15.6228 8.46262 15.8069 8.73821 15.9326 9.04153C16.0582 9.34484 16.1229 9.66993 16.1229 9.99824C16.1229 10.3265 16.0582 10.6516 15.9326 10.9549C15.8069 11.2583 15.6228 11.5339 15.3906 11.766" stroke="#0C60C2" stroke-width="1.5" stroke-linecap="round" stroke-linejoin="round"/>
</g>
</svg>
