<svg width="24" height="24" viewBox="0 0 24 24" fill="none" xmlns="http://www.w3.org/2000/svg">
<path d="M21 9.37491C21 9.57382 20.921 9.76459 20.7804 9.90526C20.6398 10.0459 20.449 10.125 20.2501 10.125C20.0512 10.125 19.8604 10.046 19.7197 9.9054C19.5791 9.76476 19.5 9.57401 19.5 9.37509L19.4995 5.56119L14.0276 11.033C13.887 11.1737 13.6962 11.2527 13.4973 11.2527C13.2983 11.2527 13.1076 11.1736 12.9669 11.033C12.8263 10.8923 12.7473 10.7015 12.7473 10.5026C12.7473 10.3037 12.8263 10.1129 12.967 9.97229L18.4388 4.50051L14.6249 4.5C14.426 4.49999 14.2352 4.42096 14.0946 4.2803C13.9539 4.13964 13.8749 3.94887 13.875 3.74995C13.875 3.55104 13.954 3.36028 14.0947 3.21964C14.2353 3.07899 14.4261 2.99999 14.625 3H14.6251L20.2494 3.00073C20.4482 3.00076 20.639 3.07977 20.7796 3.2204C20.9202 3.36103 20.9992 3.55176 20.9993 3.75064L21 9.37491ZM17.25 12.75C17.0511 12.75 16.8603 12.829 16.7197 12.9697C16.579 13.1103 16.5 13.3011 16.5 13.5V19.5H4.5V7.5H10.5C10.6989 7.5 10.8897 7.42098 11.0303 7.28033C11.171 7.13968 11.25 6.94891 11.25 6.75C11.25 6.55109 11.171 6.36032 11.0303 6.21967C10.8897 6.07902 10.6989 6 10.5 6H4.5C4.10231 6.00045 3.72105 6.15864 3.43984 6.43984C3.15864 6.72105 3.00045 7.10231 3 7.5V19.5C3.00045 19.8977 3.15864 20.279 3.43984 20.5602C3.72105 20.8414 4.10231 20.9995 4.5 21H16.5C16.8977 20.9995 17.279 20.8414 17.5602 20.5602C17.8414 20.279 17.9995 19.8977 18 19.5V13.5C18 13.3011 17.921 13.1103 17.7803 12.9697C17.6397 12.829 17.4489 12.75 17.25 12.75Z" fill="#0C60C2"/>
</svg>
