<svg width="13" height="14" viewBox="0 0 13 14" fill="none" xmlns="http://www.w3.org/2000/svg">
<path d="M10.4511 13.1512C9.98892 13.4804 7.02362 11.3938 6.45569 11.3892C5.88777 11.3847 2.88908 13.4233 2.43233 13.0867C1.97558 12.7501 3.04938 9.29317 2.87826 8.75319C2.70713 8.21321 -0.163928 5.99933 0.0159174 5.46216C0.195802 4.92499 3.82475 4.87509 4.28689 4.54592C4.74903 4.21678 5.97333 0.809911 6.5413 0.814458C7.10918 0.819044 8.27817 4.24517 8.73492 4.58174C9.19167 4.91827 12.8194 5.02659 12.9905 5.56657C13.1617 6.10655 10.2552 8.27394 10.0753 8.81111C9.89547 9.34828 10.9132 12.8221 10.4511 13.1512Z" fill="url(#paint0_linear_3703_2813)"/>
<defs>
<linearGradient id="paint0_linear_3703_2813" x1="0.00782913" y1="7.00046" x2="12.9978" y2="7.00046" gradientUnits="userSpaceOnUse">
<stop stop-color="#FCD635"/>
<stop offset="1" stop-color="#F7A928"/>
</linearGradient>
</defs>
</svg>
