<svg width="25" height="25" viewBox="0 0 25 25" fill="none" xmlns="http://www.w3.org/2000/svg">
<g id="ThumbsUp">
<path id="Vector" d="M3.5 10.25H8V20H3.5C3.30109 20 3.11032 19.921 2.96967 19.7803C2.82902 19.6397 2.75 19.4489 2.75 19.25V11C2.75 10.8011 2.82902 10.6103 2.96967 10.4697C3.11032 10.329 3.30109 10.25 3.5 10.25V10.25Z" stroke="#0C60C2" stroke-width="1.5" stroke-linecap="round" stroke-linejoin="round"/>
<path id="Vector_2" d="M8 10.25L11.75 2.75C12.144 2.75 12.5341 2.8276 12.898 2.97836C13.262 3.12913 13.5927 3.3501 13.8713 3.62868C14.1499 3.90726 14.3709 4.23797 14.5216 4.60195C14.6724 4.96593 14.75 5.35603 14.75 5.75V8H20.5508C20.7635 8 20.9738 8.04523 21.1677 8.13269C21.3615 8.22016 21.5346 8.34785 21.6753 8.5073C21.8161 8.66675 21.9213 8.85431 21.9841 9.05753C22.0468 9.26076 22.0656 9.475 22.0392 9.68605L20.9142 18.6861C20.8689 19.0488 20.6926 19.3826 20.4185 19.6245C20.1444 19.8665 19.7914 20 19.4258 20H8" stroke="#0C60C2" stroke-width="1.5" stroke-linecap="round" stroke-linejoin="round"/>
</g>
</svg>
