<svg width="56" height="56" viewBox="0 0 56 56" fill="none" xmlns="http://www.w3.org/2000/svg">
<path fill-rule="evenodd" clip-rule="evenodd" d="M15.2667 28.2764L5.07465 19.2027C3.0184 17.3722 1.80741 14.7734 1.72691 12.0207C1.64641 9.26968 2.71039 6.59918 4.65814 4.65318C6.60414 2.70543 9.26764 1.64668 12.0204 1.72718C14.7731 1.80767 17.3719 3.01868 19.2024 5.07492L27.9436 14.8942L15.2667 28.2764ZM52.2617 3.73618C53.5549 5.02943 54.2742 6.79518 54.2497 8.62392C54.2252 10.4544 53.4604 12.1974 52.1322 13.4557L23.2327 40.8344C23.4269 41.6447 23.5284 42.4899 23.5284 43.3597C23.5284 49.3709 18.6494 54.2499 12.6399 54.2499C10.2477 54.2499 8.03391 53.4764 6.23666 52.1674C5.75716 51.8192 5.48765 51.2522 5.51915 50.6607C5.55065 50.0692 5.87793 49.5337 6.39068 49.2379L12.4754 45.7239C12.4929 45.7134 12.5069 45.6977 12.5122 45.6767C12.5174 45.6574 12.5139 45.6364 12.5034 45.6189L10.6764 42.4514C10.6659 42.4339 10.6484 42.4217 10.6292 42.4164C10.6082 42.4112 10.5872 42.4129 10.5697 42.4234L4.43939 45.9637C3.92839 46.2577 3.3054 46.2752 2.7804 46.0127C2.25365 45.7484 1.89493 45.2392 1.82668 44.6547C1.77593 44.2294 1.74967 43.7972 1.74967 43.3597C1.74967 37.3502 6.62865 32.4712 12.6399 32.4712C13.5097 32.4712 14.3549 32.5727 15.1669 32.7669C15.1652 32.7669 42.5439 3.86742 42.5439 3.86742C43.8022 2.53917 45.5452 1.77443 47.3756 1.74993C49.2044 1.72543 50.9667 2.44118 52.2617 3.73618ZM11.7369 9.26268L15.2369 12.7627C15.9194 13.4452 15.9194 14.5547 15.2369 15.2372C14.5544 15.9197 13.4449 15.9197 12.7624 15.2372L9.26241 11.7372C8.57991 11.0547 8.57991 9.94518 9.26241 9.26268C9.94491 8.58018 11.0544 8.58018 11.7369 9.26268ZM30.5914 38.0169L38.2162 30.7929L42.0871 34.6639H46.3116C46.9486 34.6639 47.5331 35.0087 47.8429 35.5634L54.0292 46.7004C54.4089 47.3829 54.2899 48.2352 53.7369 48.7882L48.7879 53.7372C48.2349 54.2902 47.3827 54.4092 46.7002 54.0294L35.5631 47.8432C35.0084 47.5334 34.6637 46.9489 34.6637 46.3119V42.0874L30.5914 38.0169Z" fill="#CFCFCF"/>
</svg>
