<svg width="16" height="16" viewBox="0 0 16 16" fill="none" xmlns="http://www.w3.org/2000/svg">
<g clip-path="url(#clip0_7573_74739)">
<path d="M8.43073 10.4493C8.52406 10.2093 8.46406 9.93594 8.2774 9.74927L6.88406 8.37594L6.90406 8.35594C8.06406 7.0626 8.89073 5.57594 9.3774 4.0026H10.6707C11.0307 4.0026 11.3307 3.7026 11.3307 3.3426V3.32927C11.3307 2.96927 11.0307 2.66927 10.6707 2.66927H6.66406V2.0026C6.66406 1.63594 6.36406 1.33594 5.9974 1.33594C5.63073 1.33594 5.33073 1.63594 5.33073 2.0026V2.66927H1.32406C0.964063 2.66927 0.664062 2.96927 0.664062 3.32927C0.664062 3.69594 0.964063 3.98927 1.32406 3.98927H8.11073C7.66406 5.2826 6.9574 6.5026 5.9974 7.56927C5.4574 6.97594 5.00406 6.32927 4.62406 5.64927C4.5174 5.45594 4.32406 5.33594 4.10406 5.33594C3.64406 5.33594 3.35073 5.83594 3.5774 6.23594C3.9974 6.98927 4.51073 7.70927 5.11073 8.37594L2.1974 11.2493C1.93073 11.5093 1.93073 11.9359 2.1974 12.1959C2.4574 12.4559 2.8774 12.4559 3.14406 12.1959L5.9974 9.33594L7.34406 10.6826C7.68406 11.0226 8.26406 10.8959 8.43073 10.4493ZM11.6641 6.66927C11.2641 6.66927 10.9041 6.91594 10.7641 7.29594L8.3174 13.8293C8.1574 14.2359 8.46406 14.6693 8.8974 14.6693C9.1574 14.6693 9.39073 14.5093 9.48406 14.2626L10.0774 12.6693H13.2441L13.8441 14.2626C13.9374 14.5026 14.1707 14.6693 14.4307 14.6693C14.8641 14.6693 15.1707 14.2359 15.0174 13.8293L12.5707 7.29594C12.4241 6.91594 12.0641 6.66927 11.6641 6.66927ZM10.5841 11.3359L11.6641 8.44927L12.7441 11.3359H10.5841Z" fill="#0C60C2"/>
</g>
<defs>
<clipPath id="clip0_7573_74739">
<rect width="16" height="16" fill="white"/>
</clipPath>
</defs>
</svg>
