<svg width="80" height="80" viewBox="0 0 80 80" fill="none" xmlns="http://www.w3.org/2000/svg">
<g id="UserCircle">
<path id="Vector" d="M40 70C56.5685 70 70 56.5685 70 40C70 23.4315 56.5685 10 40 10C23.4315 10 10 23.4315 10 40C10 56.5685 23.4315 70 40 70Z" fill="white" stroke="#F2F2F2" stroke-miterlimit="10"/>
<path id="Vector_2" d="M40 10C33.9314 10.0001 28.0056 11.8405 23.0047 15.2785C18.0039 18.7164 14.1633 23.5901 11.9899 29.2562C9.81656 34.9222 9.41265 41.1141 10.8315 47.0145C12.2504 52.9149 15.4253 58.2462 19.9371 62.3047V62.3044C21.8194 58.6012 24.6902 55.4914 28.2314 53.3197C31.7726 51.1479 35.8459 49.9989 40 50C37.5277 50 35.111 49.2669 33.0554 47.8934C30.9998 46.5199 29.3976 44.5676 28.4515 42.2835C27.5054 39.9995 27.2579 37.4861 27.7402 35.0614C28.2225 32.6366 29.413 30.4093 31.1612 28.6612C32.9093 26.913 35.1366 25.7225 37.5614 25.2402C39.9861 24.7579 42.4995 25.0054 44.7836 25.9515C47.0676 26.8976 49.0199 28.4998 50.3934 30.5554C51.7669 32.611 52.5 35.0277 52.5 37.5C52.5 40.8152 51.183 43.9946 48.8388 46.3388C46.4946 48.683 43.3152 50 40 50C44.1541 49.9989 48.2274 51.1479 51.7686 53.3197C55.3098 55.4914 58.1806 58.6012 60.0629 62.3044C64.5747 58.2459 67.7496 52.9146 69.1685 47.0143C70.5874 41.1139 70.1834 34.922 68.0101 29.256C65.8367 23.5899 61.9961 18.7162 56.9953 15.2784C51.9944 11.8405 46.0686 10 40 10Z" fill="#E0E0E0"/>
</g>
</svg>
