<svg width="27" height="26" viewBox="0 0 27 26" fill="none" xmlns="http://www.w3.org/2000/svg">
<g id="WarningCircle">
<path id="Vector" d="M14 0C11.4288 0 8.91543 0.762436 6.77759 2.19089C4.63975 3.61935 2.97351 5.64967 1.98957 8.02511C1.00563 10.4006 0.748189 13.0144 1.2498 15.5362C1.7514 18.0579 2.98953 20.3743 4.80762 22.1924C6.6257 24.0105 8.94208 25.2486 11.4638 25.7502C13.9856 26.2518 16.5994 25.9944 18.9749 25.0104C21.3503 24.0265 23.3806 22.3602 24.8091 20.2224C26.2376 18.0846 27 15.5712 27 13C26.9961 9.55338 25.6252 6.24904 23.1881 3.81191C20.751 1.37478 17.4466 0.00389041 14 0ZM13 7C13 6.73478 13.1054 6.48043 13.2929 6.29289C13.4804 6.10536 13.7348 6 14 6C14.2652 6 14.5196 6.10536 14.7071 6.29289C14.8946 6.48043 15 6.73478 15 7V14C15 14.2652 14.8946 14.5196 14.7071 14.7071C14.5196 14.8946 14.2652 15 14 15C13.7348 15 13.4804 14.8946 13.2929 14.7071C13.1054 14.5196 13 14.2652 13 14V7ZM14 20C13.7033 20 13.4133 19.912 13.1666 19.7472C12.92 19.5824 12.7277 19.3481 12.6142 19.074C12.5007 18.7999 12.4709 18.4983 12.5288 18.2074C12.5867 17.9164 12.7296 17.6491 12.9393 17.4393C13.1491 17.2296 13.4164 17.0867 13.7074 17.0288C13.9983 16.9709 14.2999 17.0006 14.574 17.1142C14.8481 17.2277 15.0824 17.42 15.2472 17.6666C15.412 17.9133 15.5 18.2033 15.5 18.5C15.5 18.8978 15.342 19.2794 15.0607 19.5607C14.7794 19.842 14.3978 20 14 20Z" fill="#A4A4A4"/>
</g>
</svg>
